<svg width="40" height="40" viewBox="0 0 40 40" fill="none" xmlns="http://www.w3.org/2000/svg">
<circle cx="20.0002" cy="20.0001" r="19.3998" transform="rotate(-180 20.0002 20.0001)" fill="white" stroke="white" stroke-width="1.2"/>
<path d="M20.0002 39.3996C16.8937 39.3996 13.8326 38.6536 11.0745 37.2244C8.31634 35.7951 5.94175 33.7244 4.15045 31.1864C2.35916 28.6484 1.20355 25.7173 0.780822 22.6397C0.358096 19.5621 0.680619 16.428 1.72126 13.5011C2.7619 10.5741 4.49023 7.93978 6.76087 5.81978C9.03151 3.69978 11.7781 2.15606 14.7695 1.31847C17.7609 0.480882 20.9097 0.37392 23.9511 1.00658C26.9925 1.63924 29.8375 2.99302 32.2467 4.95405" stroke="#A50000" stroke-width="1.2"/>
<path d="M16.3638 19.9999C16.3634 19.7875 16.4374 19.5817 16.5729 19.4181L21.1183 13.9636C21.2726 13.778 21.4943 13.6612 21.7347 13.6391C21.9751 13.6169 22.2145 13.6911 22.4001 13.8455C22.5858 13.9998 22.7025 14.2215 22.7247 14.4619C22.7468 14.7023 22.6726 14.9416 22.5183 15.1273L18.4456 19.9999L22.3728 24.8726C22.4483 24.9656 22.5047 25.0726 22.5388 25.1875C22.5728 25.3023 22.5838 25.4228 22.5711 25.5419C22.5584 25.661 22.5224 25.7764 22.4649 25.8816C22.4075 25.9867 22.3299 26.0794 22.2365 26.1544C22.143 26.2377 22.0333 26.3007 21.9144 26.3396C21.7954 26.3785 21.6697 26.3925 21.5451 26.3805C21.4205 26.3686 21.2997 26.331 21.1903 26.2702C21.0808 26.2094 20.9852 26.1267 20.9092 26.0272L16.5183 20.5727C16.4042 20.4044 16.3498 20.2028 16.3638 19.9999V19.9999Z" fill="#A50000"/>
</svg>
