<svg width="12" height="7" viewBox="0 0 12 7" fill="none" xmlns="http://www.w3.org/2000/svg">
<path d="M5.99996 6.00002C5.82473 6.00036 5.6549 5.93933 5.51996 5.82752L1.01996 2.07752C0.8668 1.95022 0.770482 1.76729 0.752197 1.56897C0.733912 1.37065 0.795159 1.17319 0.922463 1.02002C1.04977 0.866861 1.2327 0.770543 1.43102 0.752258C1.62934 0.733973 1.8268 0.795219 1.97996 0.922523L5.99996 4.28252L10.02 1.04252C10.0967 0.980224 10.185 0.933701 10.2797 0.905627C10.3745 0.877553 10.4738 0.868483 10.5721 0.878937C10.6704 0.889391 10.7656 0.919164 10.8523 0.966544C10.9391 1.01392 11.0156 1.07798 11.0775 1.15502C11.1462 1.23214 11.1982 1.32261 11.2303 1.42076C11.2624 1.51892 11.2738 1.62265 11.264 1.72544C11.2541 1.82824 11.2231 1.92789 11.173 2.01816C11.1228 2.10843 11.0546 2.18736 10.9725 2.25002L6.47246 5.87252C6.33365 5.96666 6.16729 6.01155 5.99996 6.00002Z" fill="#A2A2A2"/>
</svg>
