<svg width="24" height="24" viewBox="0 0 24 24" fill="none" xmlns="http://www.w3.org/2000/svg">
<path d="M11.9999 3.14087C7.11505 3.14087 3.14087 7.11505 3.14087 12.0001C3.14087 16.8849 7.11505 20.859 11.9999 20.859C16.8848 20.859 20.859 16.8849 20.859 12.0001C20.8591 7.11515 16.8848 3.14087 11.9999 3.14087ZM11.9999 19.3234C7.96188 19.3234 4.67665 16.0382 4.67665 12.0002C4.67665 7.96198 7.96188 4.67675 11.9999 4.67675C16.038 4.67675 19.3232 7.96198 19.3232 12.0002C19.3233 16.0381 16.0381 19.3234 11.9999 19.3234Z" fill="#A50000"/>
<path d="M4.59663 4.59679C4.89652 4.2969 4.89652 3.81067 4.59663 3.51079C4.29664 3.2109 3.81052 3.2109 3.51063 3.51079C-1.17021 8.19173 -1.17021 15.8084 3.51063 20.4894C3.66063 20.6394 3.8571 20.7144 4.05368 20.7144C4.25016 20.7144 4.44674 20.6394 4.59663 20.4894C4.89662 20.1895 4.89662 19.7034 4.59673 19.4035C0.514536 15.3212 0.514536 8.67899 4.59663 4.59679Z" fill="#A50000"/>
<path d="M20.4891 3.51079C20.1891 3.2109 19.703 3.2109 19.4031 3.51079C19.1033 3.81067 19.1033 4.2969 19.4031 4.59679C23.4854 8.67899 23.4854 15.3212 19.4031 19.4035C19.1033 19.7034 19.1033 20.1896 19.4031 20.4894C19.5531 20.6393 19.7497 20.7144 19.9462 20.7144C20.1427 20.7144 20.3392 20.6394 20.4892 20.4894C25.1702 15.8083 25.1702 8.19173 20.4891 3.51079Z" fill="#A50000"/>
<path d="M12.0001 14.3551C12.4243 14.3551 12.768 14.0113 12.768 13.5872V7.04687C12.768 6.62279 12.4243 6.27898 12.0001 6.27898C11.5759 6.27898 11.2322 6.62279 11.2322 7.04687V13.5872C11.2322 14.0113 11.576 14.3551 12.0001 14.3551Z" fill="#A50000"/>
<path d="M11.9998 16.9532C12.5273 16.9532 12.955 16.5256 12.955 15.9981C12.955 15.4706 12.5273 15.0429 11.9998 15.0429C11.4723 15.0429 11.0447 15.4706 11.0447 15.9981C11.0447 16.5256 11.4723 16.9532 11.9998 16.9532Z" fill="#A50000"/>
</svg>
