<svg width="46" height="46" viewBox="0 0 46 46" fill="none" xmlns="http://www.w3.org/2000/svg">
<path d="M27.3125 9.34375C27.3125 8.49082 27.0596 7.65704 26.5857 6.94785C26.1118 6.23867 25.4383 5.68592 24.6503 5.35952C23.8623 5.03312 22.9952 4.94772 22.1587 5.11412C21.3221 5.28051 20.5537 5.69124 19.9506 6.29435C19.3475 6.89747 18.9368 7.66588 18.7704 8.50242C18.604 9.33896 18.6894 10.2061 19.0158 10.9941C19.3422 11.7821 19.8949 12.4556 20.6041 12.9295C21.3133 13.4033 22.1471 13.6562 23 13.6562C24.1433 13.655 25.2395 13.2002 26.048 12.3917C26.8564 11.5833 27.3112 10.4871 27.3125 9.34375ZM20.125 9.34375C20.125 8.77513 20.2936 8.21928 20.6095 7.74649C20.9254 7.27369 21.3744 6.9052 21.8998 6.6876C22.4251 6.47 23.0032 6.41306 23.5609 6.52399C24.1186 6.63493 24.6309 6.90874 25.0329 7.31082C25.435 7.71289 25.7088 8.22517 25.8198 8.78286C25.9307 9.34056 25.8738 9.91863 25.6561 10.444C25.4385 10.9693 25.0701 11.4183 24.5973 11.7342C24.1245 12.0501 23.5686 12.2187 23 12.2187C22.2378 12.2179 21.507 11.9147 20.968 11.3757C20.429 10.8368 20.1259 10.106 20.125 9.34375Z" fill="#A50000"/>
<path d="M22.5878 21.4326C22.7086 21.5172 22.8525 21.5625 23 21.5625C23.1475 21.5625 23.2914 21.5172 23.4122 21.4326C24.7772 20.427 26.0262 19.2727 27.1361 17.9911C29.6025 15.1548 30.9062 12.1648 30.9062 9.34375C30.9062 7.24688 30.0733 5.2359 28.5906 3.75319C27.1079 2.27048 25.0969 1.4375 23 1.4375C20.9031 1.4375 18.8921 2.27048 17.4094 3.75319C15.9267 5.2359 15.0938 7.24688 15.0938 9.34375C15.0937 12.1648 16.3975 15.1548 18.8639 17.9911C19.9738 19.2727 21.2228 20.427 22.5878 21.4326ZM23 2.875C24.715 2.87693 26.3593 3.55907 27.572 4.77178C28.7847 5.98449 29.4668 7.62872 29.4688 9.34375C29.4688 14.4865 24.4839 18.7797 23 19.9438C21.5138 18.7811 16.5312 14.4964 16.5312 9.34375C16.5332 7.62872 17.2153 5.98449 18.428 4.77178C19.6407 3.55907 21.285 2.87693 23 2.875Z" fill="#A50000"/>
<path d="M13.4519 38.7749L13.8745 37.4007L15.3123 37.8428L14.8897 39.2171L13.4519 38.7749Z" fill="#A50000"/>
<path d="M16.3267 39.6565L16.7493 38.2822L18.1871 38.7243L17.7645 40.0987L16.3267 39.6565Z" fill="#A50000"/>
<path d="M19.2021 40.5435L19.6248 39.1692L21.0626 39.6114L20.64 40.9856L19.2021 40.5435Z" fill="#A50000"/>
<path d="M41.8989 18.0007L31.1177 14.6833L30.6948 16.0573L39.2437 18.6876L23 23.6856L6.75625 18.6876L15.3049 16.0573L14.8821 14.6833L4.10083 18.0007C3.95398 18.0459 3.82549 18.137 3.73423 18.2607C3.64297 18.3843 3.59373 18.5339 3.59375 18.6876V38.0938C3.59375 38.2475 3.64303 38.3972 3.73434 38.5208C3.82565 38.6445 3.95419 38.7356 4.1011 38.7808L22.7886 44.5308C22.9263 44.5732 23.0737 44.5732 23.2114 44.5308L41.8989 38.7808C42.0458 38.7356 42.1743 38.6445 42.2657 38.5208C42.357 38.3972 42.4062 38.2475 42.4062 38.0938V18.6876C42.4062 18.5339 42.357 18.3842 42.2657 18.2606C42.1743 18.137 42.0458 18.0459 41.8989 18.0007ZM5.03125 19.6608L22.2812 24.9685V42.8707L5.03125 37.563V19.6608ZM23.7188 42.8707V24.9685L40.9688 19.6608V37.563L23.7188 42.8707Z" fill="#A50000"/>
<path d="M32.1372 37.4165L33.575 36.9743L33.9976 38.3486L32.5598 38.7908L32.1372 37.4165Z" fill="#A50000"/>
<path d="M35.0112 36.5347L36.449 36.0925L36.8717 37.4668L35.4339 37.909L35.0112 36.5347Z" fill="#A50000"/>
<path d="M37.8884 35.6475L39.3262 35.2053L39.7489 36.5795L38.3111 37.0217L37.8884 35.6475Z" fill="#A50000"/>
<path d="M17.25 30.4638C17.4406 30.4638 17.6234 30.388 17.7582 30.2533C17.893 30.1185 17.9688 29.9356 17.9688 29.745V26.1513C17.9687 25.9976 17.9195 25.8479 17.8282 25.7243C17.7368 25.6006 17.6083 25.5095 17.4614 25.4643L10.2739 23.2527C10.1664 23.2197 10.0526 23.2123 9.94174 23.2312C9.83085 23.2501 9.72595 23.2947 9.63547 23.3616C9.54499 23.4284 9.47146 23.5155 9.42079 23.6159C9.37013 23.7164 9.34374 23.8273 9.34375 23.9398V27.5335C9.34375 27.6872 9.39303 27.8369 9.48434 27.9605C9.57565 28.0841 9.7042 28.1753 9.8511 28.2205L17.0386 30.4321C17.1071 30.4531 17.1783 30.4638 17.25 30.4638ZM16.5312 28.7718L10.7812 27.0027V24.913L16.5312 26.6821V28.7718Z" fill="#A50000"/>
<path d="M36.6562 27.5335V23.9398C36.6563 23.8273 36.6299 23.7164 36.5792 23.6159C36.5285 23.5155 36.455 23.4284 36.3645 23.3616C36.2741 23.2947 36.1692 23.2501 36.0583 23.2312C35.9474 23.2123 35.8336 23.2197 35.7261 23.2527L28.5386 25.4643C28.3917 25.5095 28.2632 25.6007 28.1718 25.7243C28.0805 25.8479 28.0313 25.9976 28.0313 26.1513V29.745C28.0312 29.8575 28.0576 29.9684 28.1083 30.0689C28.159 30.1693 28.2325 30.2564 28.323 30.3233C28.4134 30.3901 28.5183 30.4347 28.6292 30.4536C28.7401 30.4725 28.8539 30.4652 28.9614 30.4321L36.1489 28.2205C36.2958 28.1753 36.4243 28.0842 36.5157 27.9605C36.607 27.8369 36.6562 27.6872 36.6562 27.5335ZM35.2188 27.0027L29.4688 28.7718V26.6821L35.2188 24.913V27.0027Z" fill="#A50000"/>
</svg>
