<svg width="46" height="46" viewBox="0 0 46 46" fill="none" xmlns="http://www.w3.org/2000/svg">
<path d="M6.35182 7.43665L7.12462 8.20945C7.42544 8.5 7.90362 8.49584 8.19935 8.20011C8.49507 7.90438 8.49923 7.42621 8.20868 7.12538L7.43665 6.35182C7.5867 6.045 7.66533 5.70819 7.66665 5.36665C7.66665 4.0964 6.63691 3.06665 5.36665 3.06665C4.0964 3.06665 3.06665 4.0964 3.06665 5.36665C3.06665 6.63691 4.0964 7.66665 5.36665 7.66665C5.70815 7.66496 6.04487 7.58635 6.35182 7.43665ZM4.59998 5.36665C4.60029 5.0208 4.8321 4.71798 5.16588 4.62741C5.49966 4.53684 5.85276 4.68096 6.02783 4.97922C6.2029 5.27749 6.15661 5.65604 5.91482 5.90332H5.90332V5.91482C5.68278 6.13099 5.35408 6.19374 5.06942 6.07401C4.78476 5.95429 4.59972 5.67546 4.59998 5.36665Z" fill="#A50000"/>
<path d="M43.7 0H2.3C1.02974 0 0 1.02974 0 2.3V9.2C0 10.4703 1.02974 11.5 2.3 11.5H3.06667V42.9333C3.06667 44.627 4.43966 46 6.13333 46H33.7333C35.427 46 36.8 44.627 36.8 42.9333V11.5H43.7C44.9703 11.5 46 10.4703 46 9.2V2.3C46 1.02974 44.9703 0 43.7 0ZM1.53333 9.2V2.3C1.53333 1.87658 1.87658 1.53333 2.3 1.53333H9.96667V9.96667H2.3C1.87658 9.96667 1.53333 9.62342 1.53333 9.2ZM35.2667 42.9333C35.2667 43.7802 34.5802 44.4667 33.7333 44.4667H6.13333C5.2865 44.4667 4.6 43.7802 4.6 42.9333V11.5H35.2667V42.9333ZM44.4667 9.2C44.4667 9.62342 44.1234 9.96667 43.7 9.96667H11.5V1.53333H43.7C44.1234 1.53333 44.4667 1.87658 44.4667 2.3V9.2Z" fill="#A50000"/>
<path d="M14.5665 5.36659H19.9331C20.3566 5.36659 20.6998 5.02334 20.6998 4.59992C20.6998 4.1765 20.3566 3.83325 19.9331 3.83325H14.5665C14.1431 3.83325 13.7998 4.1765 13.7998 4.59992C13.7998 5.02334 14.1431 5.36659 14.5665 5.36659Z" fill="#A50000"/>
<path d="M40.6334 3.83325H23.0001C22.5766 3.83325 22.2334 4.1765 22.2334 4.59992C22.2334 5.02334 22.5766 5.36659 23.0001 5.36659H40.6334C41.0568 5.36659 41.4001 5.02334 41.4001 4.59992C41.4001 4.1765 41.0568 3.83325 40.6334 3.83325Z" fill="#A50000"/>
<path d="M34.5001 6.8999H29.1334C28.7099 6.8999 28.3667 7.24315 28.3667 7.66657C28.3667 8.08999 28.7099 8.43324 29.1334 8.43324H34.5001C34.9235 8.43324 35.2667 8.08999 35.2667 7.66657C35.2667 7.24315 34.9235 6.8999 34.5001 6.8999Z" fill="#A50000"/>
<path d="M26.0665 6.8999H14.5665C14.1431 6.8999 13.7998 7.24315 13.7998 7.66657C13.7998 8.08999 14.1431 8.43324 14.5665 8.43324H26.0665C26.4899 8.43324 26.8331 8.08999 26.8331 7.66657C26.8331 7.24315 26.4899 6.8999 26.0665 6.8999Z" fill="#A50000"/>
<path d="M6.8999 15.3333C6.8999 15.7567 7.24315 16.1 7.66657 16.1H13.7999C14.2233 16.1 14.5666 15.7567 14.5666 15.3333C14.5666 14.9099 14.2233 14.5667 13.7999 14.5667H7.66657C7.24315 14.5667 6.8999 14.9099 6.8999 15.3333Z" fill="#A50000"/>
<path d="M6.8999 18.4C6.8999 18.8234 7.24315 19.1666 7.66657 19.1666H17.6332C18.0567 19.1666 18.3999 18.8234 18.3999 18.4C18.3999 17.9765 18.0567 17.6333 17.6332 17.6333H7.66657C7.24315 17.6333 6.8999 17.9765 6.8999 18.4Z" fill="#A50000"/>
<path d="M20.7 19.1666H26.8333C27.2568 19.1666 27.6 18.8234 27.6 18.4C27.6 17.9765 27.2568 17.6333 26.8333 17.6333H20.7C20.2766 17.6333 19.9333 17.9765 19.9333 18.4C19.9333 18.8234 20.2766 19.1666 20.7 19.1666Z" fill="#A50000"/>
<path d="M29.9 19.1666H32.2C32.6234 19.1666 32.9667 18.8234 32.9667 18.4C32.9667 17.9765 32.6234 17.6333 32.2 17.6333H29.9C29.4766 17.6333 29.1333 17.9765 29.1333 18.4C29.1333 18.8234 29.4766 19.1666 29.9 19.1666Z" fill="#A50000"/>
<path d="M7.66657 23.7667H13.7999C14.2233 23.7667 14.5666 23.4235 14.5666 23.0001C14.5666 22.5766 14.2233 22.2334 13.7999 22.2334H7.66657C7.24315 22.2334 6.8999 22.5766 6.8999 23.0001C6.8999 23.4235 7.24315 23.7667 7.66657 23.7667Z" fill="#A50000"/>
<path d="M17.6332 25.2998H7.66657C7.24315 25.2998 6.8999 25.643 6.8999 26.0665C6.8999 26.4899 7.24315 26.8331 7.66657 26.8331H17.6332C18.0567 26.8331 18.3999 26.4899 18.3999 26.0665C18.3999 25.643 18.0567 25.2998 17.6332 25.2998Z" fill="#A50000"/>
<path d="M20.7 26.8331H26.8333C27.2568 26.8331 27.6 26.4899 27.6 26.0665C27.6 25.643 27.2568 25.2998 26.8333 25.2998H20.7C20.2766 25.2998 19.9333 25.643 19.9333 26.0665C19.9333 26.4899 20.2766 26.8331 20.7 26.8331Z" fill="#A50000"/>
<path d="M29.9 26.8331H32.2C32.6234 26.8331 32.9667 26.4899 32.9667 26.0665C32.9667 25.643 32.6234 25.2998 32.2 25.2998H29.9C29.4766 25.2998 29.1333 25.643 29.1333 26.0665C29.1333 26.4899 29.4766 26.8331 29.9 26.8331Z" fill="#A50000"/>
<path d="M7.66657 31.4332H13.7999C14.2233 31.4332 14.5666 31.09 14.5666 30.6666C14.5666 30.2431 14.2233 29.8999 13.7999 29.8999H7.66657C7.24315 29.8999 6.8999 30.2431 6.8999 30.6666C6.8999 31.09 7.24315 31.4332 7.66657 31.4332Z" fill="#A50000"/>
<path d="M17.6332 32.9668H7.66657C7.24315 32.9668 6.8999 33.31 6.8999 33.7335C6.8999 34.1569 7.24315 34.5001 7.66657 34.5001H17.6332C18.0567 34.5001 18.3999 34.1569 18.3999 33.7335C18.3999 33.31 18.0567 32.9668 17.6332 32.9668Z" fill="#A50000"/>
<path d="M20.7 34.5001H26.8333C27.2568 34.5001 27.6 34.1569 27.6 33.7335C27.6 33.31 27.2568 32.9668 26.8333 32.9668H20.7C20.2766 32.9668 19.9333 33.31 19.9333 33.7335C19.9333 34.1569 20.2766 34.5001 20.7 34.5001Z" fill="#A50000"/>
<path d="M29.9 34.5001H32.2C32.6234 34.5001 32.9667 34.1569 32.9667 33.7335C32.9667 33.31 32.6234 32.9668 32.2 32.9668H29.9C29.4766 32.9668 29.1333 33.31 29.1333 33.7335C29.1333 34.1569 29.4766 34.5001 29.9 34.5001Z" fill="#A50000"/>
<path d="M7.66657 39.1H13.7999C14.2233 39.1 14.5666 38.7567 14.5666 38.3333C14.5666 37.9099 14.2233 37.5667 13.7999 37.5667H7.66657C7.24315 37.5667 6.8999 37.9099 6.8999 38.3333C6.8999 38.7567 7.24315 39.1 7.66657 39.1Z" fill="#A50000"/>
<path d="M17.6332 40.6333H7.66657C7.24315 40.6333 6.8999 40.9765 6.8999 41.4C6.8999 41.8234 7.24315 42.1666 7.66657 42.1666H17.6332C18.0567 42.1666 18.3999 41.8234 18.3999 41.4C18.3999 40.9765 18.0567 40.6333 17.6332 40.6333Z" fill="#A50000"/>
<path d="M20.7 42.1666H26.8333C27.2568 42.1666 27.6 41.8234 27.6 41.4C27.6 40.9765 27.2568 40.6333 26.8333 40.6333H20.7C20.2766 40.6333 19.9333 40.9765 19.9333 41.4C19.9333 41.8234 20.2766 42.1666 20.7 42.1666Z" fill="#A50000"/>
<path d="M29.9 42.1666H32.2C32.6234 42.1666 32.9667 41.8234 32.9667 41.4C32.9667 40.9765 32.6234 40.6333 32.2 40.6333H29.9C29.4766 40.6333 29.1333 40.9765 29.1333 41.4C29.1333 41.8234 29.4766 42.1666 29.9 42.1666Z" fill="#A50000"/>
<path d="M45.2333 16.0999H40.9507L41.942 15.1086C42.2326 14.8078 42.2284 14.3296 41.9327 14.0339C41.637 13.7381 41.1588 13.734 40.858 14.0245L38.558 16.3245C38.2587 16.6239 38.2587 17.1092 38.558 17.4086L40.858 19.7086C41.1588 19.9992 41.637 19.995 41.9327 19.6993C42.2284 19.4035 42.2326 18.9254 41.942 18.6245L40.9507 17.6332H45.2333C45.6568 17.6332 46 17.29 46 16.8666C46 16.4432 45.6568 16.0999 45.2333 16.0999Z" fill="#A50000"/>
</svg>
