<svg class="scroll-trigger" width="44" height="44" viewBox="0 0 44 44" fill="none" xmlns="http://www.w3.org/2000/svg">
    <circle class="scroll-trigger-circle" cx="22" cy="22" r="21.4" transform="rotate(-90 22 22)" fill="#2D2C28" fill-opacity="0.45" stroke="#494949" stroke-width="1.2"/>
    <path  class="scroll-trigger-circle-half" d="M0.599998 22.0005C0.599998 18.5737 1.42292 15.1971 2.99954 12.1545C4.57617 9.11201 6.86039 6.49259 9.66007 4.51661C12.4598 2.54062 15.693 1.26586 19.0879 0.799553C22.4828 0.333242 25.94 0.689017 29.1688 1.83695C32.3976 2.98489 35.3035 4.89141 37.642 7.39616C39.9806 9.90091 41.6835 12.9306 42.6075 16.2305C43.5314 19.5303 43.6494 23.0038 42.9515 26.3588C42.2536 29.7137 40.7602 32.852 38.597 35.5097" stroke="#A50000" stroke-width="1.2"/>
    <path class="scroll-trigger-arrow" d="M22 17.9997C22.2336 17.9993 22.4601 18.0806 22.64 18.2297L28.64 23.2297C28.8442 23.3995 28.9726 23.6434 28.997 23.9078C29.0214 24.1722 28.9397 24.4355 28.77 24.6397C28.6002 24.8439 28.3563 24.9724 28.0919 24.9967C27.8275 25.0211 27.5642 24.9395 27.36 24.7697L22 20.2897L16.64 24.6097C16.5377 24.6928 16.42 24.7548 16.2936 24.7923C16.1673 24.8297 16.0348 24.8418 15.9038 24.8278C15.7728 24.8139 15.6458 24.7742 15.5301 24.711C15.4145 24.6479 15.3125 24.5625 15.23 24.4597C15.1384 24.3569 15.069 24.2363 15.0262 24.1054C14.9834 23.9745 14.9681 23.8362 14.9813 23.6992C14.9944 23.5621 15.0357 23.4292 15.1026 23.3089C15.1695 23.1885 15.2605 23.0833 15.37 22.9997L21.37 18.1697C21.5551 18.0442 21.7769 17.9844 22 17.9997Z" fill="white"/>
</svg>
