<svg width="40" height="40" viewBox="0 0 40 40" fill="none" xmlns="http://www.w3.org/2000/svg">
<circle cx="20.0003" cy="19.9998" r="19.3998" fill="white" stroke="white" stroke-width="1.2"/>
<path d="M19.9998 0.600365C23.1063 0.600365 26.1673 1.34637 28.9255 2.77563C31.6837 4.2049 34.0582 6.27562 35.8495 8.81362C37.6408 11.3516 38.7964 14.2827 39.2192 17.3603C39.6419 20.4379 39.3194 23.572 38.2787 26.4989C37.2381 29.4259 35.5098 32.0602 33.2391 34.1802C30.9685 36.3002 28.2219 37.8439 25.2305 38.6815C22.2391 39.5191 19.0903 39.6261 16.0489 38.9934C13.0075 38.3608 10.1625 37.007 7.75327 35.0459" stroke="#A50000" stroke-width="1.2"/>
<path d="M23.6364 20C23.6369 20.2124 23.5629 20.4183 23.4274 20.5818L18.8819 26.0363C18.7276 26.222 18.5059 26.3387 18.2655 26.3609C18.0251 26.3831 17.7858 26.3088 17.6001 26.1545C17.4145 26.0002 17.2977 25.7785 17.2756 25.5381C17.2534 25.2977 17.3276 25.0584 17.482 24.8727L21.5546 20L17.6274 15.1273C17.5519 15.0344 17.4955 14.9274 17.4615 14.8125C17.4274 14.6977 17.4165 14.5772 17.4291 14.4581C17.4418 14.339 17.4779 14.2235 17.5353 14.1184C17.5927 14.0133 17.6704 13.9206 17.7638 13.8455C17.8572 13.7623 17.9669 13.6992 18.0859 13.6603C18.2049 13.6214 18.3306 13.6075 18.4552 13.6195C18.5798 13.6314 18.7006 13.669 18.81 13.7298C18.9194 13.7906 19.0151 13.8733 19.091 13.9728L23.4819 19.4273C23.596 19.5956 23.6504 19.7972 23.6364 20Z" fill="#A50000"/>
</svg>
