<svg width="21" height="21" viewBox="0 0 21 21" fill="none" xmlns="http://www.w3.org/2000/svg">
<path d="M1.13803 0.687893C7.1693 2.32891 11.269 4.00959 14.1206 6.71619C16.9594 9.41067 18.6119 13.1726 19.6209 19.0993C19.6633 19.3483 19.4696 19.5793 19.2126 19.5793L10.4669 19.5793C10.2725 19.5793 10.097 19.4424 10.0491 19.243C9.47133 16.8408 8.74941 14.932 7.37065 13.48C5.98688 12.0229 3.99124 11.0766 0.973934 10.4844C0.761039 10.4426 0.613056 10.2603 0.613056 10.0586L0.613056 1.09043C0.613056 0.815389 0.874508 0.61619 1.13803 0.687893Z" stroke="white" stroke-width="0.841346"/>
<circle cx="4.12012" cy="6.61053" r="0.663462" stroke="#A50000" stroke-width="0.673077"/>
<circle cx="14.0576" cy="16.548" r="0.663462" stroke="#A50000" stroke-width="0.673077"/>
</svg>
