<svg width="298" height="41" viewBox="0 0 298 41" fill="none" xmlns="http://www.w3.org/2000/svg">
<path fill-rule="evenodd" clip-rule="evenodd" d="M256.165 11.4823C257.919 13.2359 259.228 15.3832 259.972 17.7431C260.068 18.05 260.45 18.3035 260.737 18.2265C261.301 18.0763 261.865 17.9261 262.428 17.7759C262.828 19.269 263.034 20.8144 263.034 22.3736C263.034 32.1821 255.082 40.1336 245.274 40.1336C235.465 40.1336 227.514 32.1822 227.514 22.3736C227.514 12.5649 235.465 4.61346 245.274 4.61346C246.833 4.61346 248.378 4.81876 249.871 5.21889C249.721 5.78258 249.571 6.34626 249.421 6.91003C249.344 7.19731 249.597 7.57883 249.904 7.67566C252.264 8.4198 254.411 9.72872 256.165 11.4823ZM253.87 22.3736C253.87 17.626 250.021 13.7772 245.274 13.7772C240.526 13.7772 236.677 17.626 236.677 22.3736C236.677 27.1213 240.526 30.97 245.274 30.97C250.021 30.97 253.87 27.1213 253.87 22.3736Z" fill="white" fill-opacity="0.1"/>
<path fill-rule="evenodd" clip-rule="evenodd" d="M245.273 13.7772C240.526 13.7772 236.677 17.626 236.677 22.3736C236.677 27.1213 240.526 30.97 245.273 30.97C250.021 30.97 253.87 27.1213 253.87 22.3736C253.87 17.626 250.021 13.7772 245.273 13.7772ZM245.273 20.0291C246.568 20.0291 247.618 21.0788 247.618 22.3735C247.618 23.6683 246.568 24.718 245.273 24.718C243.979 24.718 242.929 23.6683 242.929 22.3735C242.929 21.0788 243.979 20.0291 245.273 20.0291Z" fill="#A2A2A2"/>
<path fill-rule="evenodd" clip-rule="evenodd" d="M255.798 16.0472C255.283 15.1935 254.664 14.4024 253.954 13.6929C253.245 12.9835 252.454 12.3642 251.6 11.8489C249.859 10.8435 249.317 9.53624 249.904 7.6759C252.264 8.41996 254.411 9.72896 256.165 11.4825C257.918 13.2361 259.227 15.3834 259.971 17.7433C258.111 18.3299 256.804 17.7886 255.798 16.0472Z" fill="#494949"/>
<path d="M232.163 9.26273C235.665 5.76071 240.321 3.83207 245.273 3.83207C246.632 3.83207 247.988 3.98227 249.313 4.27815L249.844 2.28597C249.977 1.788 250.309 1.36326 250.754 1.12076C251.186 0.885144 251.683 0.838645 252.152 0.989395C253.404 1.39194 254.625 1.90624 255.788 2.52073C256.373 2.20274 257.065 2.19367 257.647 2.52682C261.048 4.43272 263.214 6.59855 265.12 10.0002C265.453 10.5815 265.444 11.2741 265.126 11.8591C265.741 13.0219 266.255 14.2429 266.658 15.495C266.808 15.9642 266.762 16.4607 266.526 16.8929C266.284 17.338 265.859 17.6697 265.36 17.8034L263.369 18.334C263.665 19.6594 263.815 21.0149 263.815 22.3736C263.815 27.3262 261.886 31.9824 258.384 35.4844C254.882 38.9865 250.226 40.9152 245.273 40.9152C240.321 40.9152 235.664 38.9864 232.162 35.4844C228.66 31.9824 226.732 27.3262 226.732 22.3736C226.732 17.421 228.661 12.7648 232.163 9.26273ZM251.991 11.172C251.995 11.1745 251.999 11.1771 252.004 11.1797C252.912 11.7279 253.754 12.3875 254.507 13.1402C255.259 13.8928 255.919 14.735 256.467 15.6432C256.47 15.6476 256.472 15.6519 256.475 15.6563C257.142 16.811 257.889 17.2847 258.944 17.1716C258.213 15.2571 257.072 13.4947 255.612 12.035C254.152 10.5753 252.39 9.43427 250.475 8.70248C250.362 9.75796 250.836 10.5053 251.991 11.172ZM265.154 16.1449C265.184 16.0899 265.189 16.0338 265.17 15.9736C264.747 14.6597 264.193 13.3831 263.522 12.179C263.352 11.8739 263.405 11.493 263.652 11.246C263.804 11.0941 263.846 10.9187 263.764 10.777C263.762 10.7741 263.76 10.7711 263.759 10.768C261.981 7.59464 260.053 5.66568 256.879 3.88842C256.876 3.88677 256.873 3.88506 256.87 3.88341C256.728 3.80151 256.553 3.8434 256.401 3.99532C256.154 4.24243 255.773 4.29557 255.468 4.12544C254.264 3.4543 252.987 2.89991 251.674 2.47751C251.613 2.45813 251.557 2.46321 251.502 2.4933C251.431 2.53206 251.377 2.60396 251.354 2.68961L250.217 6.95546C252.651 7.73695 254.897 9.11003 256.717 10.9299C258.537 12.7498 259.91 14.996 260.692 17.43L264.957 16.2936C265.043 16.2702 265.115 16.2161 265.154 16.1449ZM245.273 39.3522C254.635 39.3522 262.252 31.7356 262.252 22.3736C262.252 21.1506 262.119 19.9306 261.857 18.7367L260.939 18.9814C260.838 19.0086 260.734 19.0214 260.63 19.0214C260.281 19.0214 259.93 18.8755 259.658 18.6339C259.309 18.7093 258.974 18.7478 258.651 18.7478C257.195 18.7478 256.013 17.9775 255.125 16.4447C254.643 15.6469 254.063 14.907 253.402 14.2454C252.74 13.5838 252 13.0037 251.202 12.5215C249.33 11.4382 248.596 9.91496 249.013 7.98843C248.7 7.63582 248.547 7.14888 248.665 6.70882L248.91 5.78963C247.716 5.52791 246.496 5.39497 245.273 5.39497C235.911 5.39497 228.295 13.0115 228.295 22.3736C228.295 31.7356 235.911 39.3522 245.273 39.3522Z" fill="white"/>
<path d="M249.563 6.44293L249.305 7.26269C248.972 8.31887 248.926 9.32763 249.304 10.2532C249.679 11.1707 250.416 11.874 251.383 12.4342C252.175 12.9127 252.909 13.4875 253.567 14.146C253.567 14.146 253.567 14.146 253.567 14.146M249.563 6.44293L256.019 15.8925C255.504 15.0388 254.885 14.2477 254.175 13.5382L253.567 14.146M249.563 6.44293L250.383 6.7014C252.876 7.48743 255.143 8.8697 256.993 10.72C258.844 12.5703 260.226 14.8371 261.012 17.3301L261.27 18.1499L260.451 18.4084C259.394 18.7414 258.386 18.7872 257.46 18.4093C256.543 18.0347 255.839 17.2976 255.279 16.3299M249.563 6.44293L255.279 16.3299M253.567 14.146C254.226 14.8046 254.801 15.5384 255.279 16.3299M253.567 14.146L255.279 16.3299" fill="#494949" stroke="white" stroke-width="1.71913"/>
<path d="M250.108 0.879517C249.916 0.816905 249.644 0.918737 249.559 1.24132C249.558 1.24152 249.558 1.24171 249.558 1.2419L248.646 4.71435L248.646 4.7144L248.105 6.77465C248.115 6.78841 248.126 6.79989 248.135 6.80742C248.135 6.80764 248.136 6.80785 248.136 6.80806C251.222 7.79853 254.028 9.53616 256.318 11.8597C258.609 14.1841 260.321 17.0297 261.295 20.1575C261.296 20.1585 261.297 20.1597 261.298 20.161C261.304 20.1681 261.311 20.1759 261.32 20.1833L263.335 19.6386L263.335 19.6386L266.758 18.7134C266.758 18.7133 266.758 18.7133 266.758 18.7132C267.054 18.6325 267.182 18.358 267.11 18.1312L267.11 18.1312C266.575 16.4442 265.879 14.8189 265.033 13.279L264.725 12.7178L265.174 12.2618C265.452 11.9796 265.443 11.6834 265.335 11.4937L265.335 11.4937L265.33 11.4839C263.091 7.42727 260.651 4.95343 256.656 2.6835L256.656 2.68356L256.646 2.67786C256.473 2.57649 256.197 2.56031 255.922 2.8399L255.46 3.30862L254.887 2.98471C253.37 2.12731 251.769 1.42129 250.108 0.879523L250.108 0.879517ZM248.118 6.80233C248.118 6.80249 248.119 6.80265 248.119 6.8028C248.119 6.80264 248.118 6.80248 248.118 6.80232L248.118 6.80233Z" fill="#A50000" stroke="white" stroke-width="1.71913"/>
<path d="M260.275 13.7047C260.061 13.3299 260.191 12.8526 260.566 12.6384C260.941 12.4242 261.418 12.5545 261.632 12.9292L261.633 12.9297C261.847 13.3045 261.716 13.7816 261.342 13.9958C261.219 14.0657 261.086 14.0988 260.955 14.0988C260.683 14.0988 260.419 13.9572 260.275 13.7047Z" fill="black"/>
<path d="M254.329 7.47494C254.189 7.47494 254.048 7.43751 253.92 7.35889C253.552 7.13265 253.438 6.65132 253.664 6.28371C253.89 5.91609 254.372 5.80137 254.739 6.02777L254.74 6.02808C255.107 6.25432 255.222 6.73549 254.995 7.10311C254.848 7.34295 254.592 7.47494 254.329 7.47494Z" fill="black"/>
<path d="M245.273 12.9957C250.444 12.9957 254.651 17.2026 254.651 22.3736C254.651 26.0999 252.445 29.4735 249.03 30.968C248.928 31.0126 248.822 31.0338 248.717 31.0338C248.416 31.0337 248.129 30.8588 248 30.5655C247.827 30.17 248.008 29.7092 248.403 29.5362C251.249 28.2905 253.088 25.4791 253.088 22.3736C253.088 18.0644 249.583 14.5587 245.273 14.5587C240.964 14.5587 237.459 18.0644 237.459 22.3736C237.459 25.4789 239.297 28.2903 242.143 29.5359C242.539 29.709 242.719 30.1698 242.546 30.5652C242.373 30.9607 241.912 31.1407 241.517 30.9678C238.102 29.4732 235.895 26.0997 235.895 22.3736C235.896 17.2026 240.103 12.9957 245.273 12.9957Z" fill="black"/>
<path d="M244.492 16.9033C244.492 16.4718 244.842 16.1218 245.274 16.1218H245.274C245.706 16.1218 246.055 16.4718 246.055 16.9033C246.055 17.3349 245.705 17.6848 245.274 17.6848C244.842 17.6848 244.492 17.3349 244.492 16.9033Z" fill="black"/>
<path d="M248.336 16.9265L248.337 16.9268C248.728 17.1076 248.899 17.5719 248.718 17.9638C248.586 18.2496 248.304 18.4179 248.008 18.4179C247.899 18.4179 247.787 18.3947 247.681 18.3458C247.289 18.165 247.118 17.7006 247.299 17.3087C247.48 16.9168 247.944 16.7457 248.336 16.9265Z" fill="black"/>
<path d="M249.578 18.9883C249.937 18.7489 250.422 18.8459 250.661 19.205L250.662 19.2055C250.901 19.5646 250.804 20.0496 250.445 20.289C250.312 20.3778 250.161 20.4203 250.012 20.4203C249.759 20.4203 249.512 20.298 249.361 20.072C249.121 19.713 249.218 19.2278 249.578 18.9883Z" fill="black"/>
<path d="M249.962 22.3737C249.962 21.9421 250.312 21.5922 250.744 21.5922C251.176 21.5922 251.525 21.9421 251.525 22.3737V22.3742C251.525 22.8057 251.176 23.1555 250.744 23.1555C250.312 23.1555 249.962 22.8052 249.962 22.3737Z" fill="black"/>
<path d="M250.71 25.4589C250.573 25.7326 250.297 25.8908 250.01 25.8908C249.893 25.8908 249.774 25.8642 249.661 25.808C249.275 25.6149 249.119 25.1453 249.312 24.7593C249.505 24.3733 249.974 24.2168 250.361 24.4097C250.747 24.6027 250.903 25.0722 250.71 25.4582L250.71 25.4589Z" fill="black"/>
<path d="M247.599 26.4455C247.967 26.2192 248.448 26.3338 248.674 26.7014C248.9 27.069 248.786 27.5504 248.418 27.7766L248.418 27.7769C248.29 27.8555 248.149 27.8929 248.009 27.8929C247.747 27.8929 247.49 27.7607 247.343 27.5207C247.117 27.1532 247.232 26.6717 247.599 26.4455Z" fill="black"/>
<path d="M245.273 28.6254C244.842 28.6254 244.492 28.2755 244.492 27.8439C244.492 27.4124 244.842 27.0624 245.274 27.0624C245.705 27.0624 246.055 27.4124 246.055 27.8439C246.055 28.2755 245.705 28.6254 245.274 28.6254H245.273Z" fill="black"/>
<path d="M242.129 27.7766L242.128 27.7763C241.761 27.55 241.646 27.0689 241.873 26.7013C242.099 26.3337 242.58 26.2193 242.948 26.4455C243.316 26.6717 243.43 27.153 243.204 27.5207C243.056 27.7605 242.8 27.8927 242.538 27.8927C242.398 27.8927 242.257 27.8552 242.129 27.7766Z" fill="black"/>
<path d="M240.142 24.4336C240.515 24.2162 240.994 24.3422 241.211 24.7151C241.429 25.0879 241.303 25.5665 240.93 25.7839C240.806 25.8562 240.671 25.8905 240.537 25.8905C240.268 25.8905 240.006 25.7516 239.861 25.5026L239.861 25.5022C239.644 25.1293 239.77 24.651 240.142 24.4336Z" fill="black"/>
<path d="M239.022 22.3737V22.373C239.022 21.9415 239.372 21.5919 239.803 21.5919C240.235 21.5919 240.585 21.942 240.585 22.3737C240.585 22.8053 240.235 23.1552 239.803 23.1552C239.372 23.1552 239.022 22.8052 239.022 22.3737Z" fill="black"/>
<path d="M239.886 19.2044C240.126 18.8453 240.611 18.7484 240.97 18.9879C241.329 19.2273 241.426 19.7127 241.187 20.0718C241.036 20.2978 240.788 20.4199 240.536 20.4199C240.387 20.4199 240.236 20.3774 240.103 20.2885C239.744 20.0492 239.647 19.5639 239.886 19.2048L239.886 19.2044Z" fill="black"/>
<path d="M242.539 18.4179C242.277 18.4179 242.021 18.2858 241.873 18.0459C241.647 17.6783 241.761 17.1969 242.129 16.9707L242.129 16.9704C242.497 16.7441 242.978 16.8589 243.204 17.2265C243.431 17.5941 243.316 18.0756 242.948 18.3018C242.82 18.3804 242.679 18.4179 242.539 18.4179Z" fill="black"/>
<path d="M248.4 22.3737C248.4 24.0974 246.997 25.4997 245.274 25.4997C243.55 25.4997 242.148 24.0974 242.148 22.3737C242.148 20.6499 243.55 19.2476 245.274 19.2476C246.997 19.2476 248.4 20.6499 248.4 22.3737ZM245.274 20.8106C244.412 20.8106 243.711 21.5119 243.711 22.3737C243.711 23.2355 244.412 23.9367 245.274 23.9367C246.136 23.9367 246.837 23.2355 246.837 22.3737C246.837 21.5119 246.136 20.8106 245.274 20.8106Z" fill="black"/>
<path d="M246.392 11.133C246.269 11.204 246.135 11.2379 246.002 11.2379C245.732 11.2379 245.469 11.0977 245.325 10.847L243.869 8.32545C243.653 7.95166 243.781 7.47377 244.155 7.25793C244.528 7.04223 245.006 7.17016 245.222 7.54395L246.678 10.0655C246.894 10.4392 246.766 10.9171 246.392 11.133Z" fill="black"/>
<path d="M257.192 23.8831C256.922 23.8831 256.659 23.7429 256.514 23.4922C256.299 23.1184 256.427 22.6406 256.801 22.4247L259.322 20.9689C259.696 20.7532 260.174 20.8813 260.39 21.255C260.605 21.6288 260.477 22.1066 260.103 22.3225L257.582 23.7783C257.459 23.8493 257.324 23.8831 257.192 23.8831Z" fill="black"/>
<path d="M255.231 28.1813H258.142C258.574 28.1813 258.924 28.5312 258.924 28.9628C258.924 29.3943 258.574 29.7443 258.142 29.7443H255.231C254.799 29.7443 254.449 29.3943 254.449 28.9628C254.449 28.5312 254.799 28.1813 255.231 28.1813Z" fill="black"/>
<path d="M250.993 32.3817L253.514 33.8374C253.888 34.0532 254.016 34.5312 253.8 34.905C253.655 35.1557 253.393 35.2959 253.123 35.2959C252.99 35.2959 252.856 35.262 252.733 35.191L250.211 33.7352C249.837 33.5194 249.709 33.0415 249.925 32.6677C250.141 32.2939 250.619 32.1658 250.993 32.3817Z" fill="black"/>
<path d="M244.155 33.6144C244.528 33.3987 245.006 33.5267 245.222 33.9004L246.678 36.4219C246.894 36.7957 246.766 37.2736 246.392 37.4895C246.269 37.5605 246.135 37.5943 246.002 37.5943C245.732 37.5943 245.469 37.4541 245.325 37.2034L243.869 34.6819C243.653 34.3081 243.781 33.8302 244.155 33.6144Z" fill="black"/>
<path d="M238.685 31.5491C239.116 31.5491 239.466 31.899 239.466 32.3306V35.2421C239.466 35.6737 239.116 36.0236 238.685 36.0236C238.253 36.0236 237.903 35.6737 237.903 35.2421V32.3306C237.903 31.8989 238.253 31.5491 238.685 31.5491Z" fill="black"/>
<path d="M233.912 27.3113C234.128 26.9376 234.606 26.8094 234.979 27.0253C235.353 27.2411 235.481 27.719 235.266 28.0928L233.81 30.6143C233.665 30.865 233.402 31.0052 233.132 31.0052C233 31.0052 232.865 30.9714 232.742 30.9003C232.368 30.6845 232.24 30.2066 232.456 29.8328L233.912 27.3113Z" fill="black"/>
<path d="M230.444 22.4247L232.966 20.969C233.339 20.7534 233.817 20.8813 234.033 21.2551C234.249 21.6289 234.121 22.1068 233.747 22.3226L231.226 23.7783C231.102 23.8493 230.968 23.8832 230.835 23.8832C230.565 23.8832 230.303 23.743 230.158 23.4923C229.942 23.1185 230.07 22.6405 230.444 22.4247Z" fill="black"/>
<path d="M232.405 16.566C231.973 16.566 231.624 16.2161 231.624 15.7845C231.624 15.353 231.973 15.0031 232.405 15.0031H235.317C235.748 15.0031 236.098 15.353 236.098 15.7845C236.098 16.2161 235.748 16.566 235.317 16.566H232.405Z" fill="black"/>
<path d="M239.944 12.4705C239.812 12.4705 239.678 12.4366 239.554 12.3656L237.033 10.9098C236.659 10.6941 236.531 10.2161 236.747 9.8423C236.963 9.46851 237.441 9.34042 237.814 9.55627L240.336 11.012C240.71 11.2278 240.838 11.7058 240.622 12.0796C240.477 12.3303 240.215 12.4705 239.944 12.4705Z" fill="black"/>
<path d="M245.273 31.7515C244.842 31.7515 244.492 31.4015 244.492 30.97C244.492 30.5384 244.842 30.1885 245.273 30.1885H245.274C245.705 30.1885 246.055 30.5384 246.055 30.97C246.055 31.4015 245.705 31.7515 245.273 31.7515Z" fill="black"/>
<path d="M23.105 30.1741H8.41684L4.86856 37.4769H0L15.0183 8.18304H19.5155L33.6673 37.4769H26.5295L23.105 30.1741ZM21.9085 27.616L15.8847 14.702L9.65461 27.616H21.9085Z" fill="white"/>
<path d="M31.7862 8.59563H39.2541L49.7751 30.5867L60.8325 8.59563H65.4535L50.8479 37.8895H46.3094L31.7862 8.59563Z" fill="white"/>
<path d="M81.5162 11.1537H69.5511V8.59563H100.454V11.1537H88.489V37.4769H81.5162V11.1537Z" fill="white"/>
<path d="M123.34 37.8895C119.902 37.8895 116.931 37.2981 114.428 36.1154C111.925 34.9326 110 33.2273 108.652 30.9993C107.332 28.7438 106.672 26.0482 106.672 22.9125C106.672 19.8318 107.332 17.1913 108.652 14.9908C110 12.7903 111.925 11.1124 114.428 9.95718C116.931 8.77442 119.902 8.18304 123.34 8.18304C126.751 8.18304 129.708 8.77442 132.211 9.95718C134.714 11.1124 136.626 12.7903 137.946 14.9908C139.294 17.1913 139.968 19.8318 139.968 22.9125C139.968 26.0482 139.294 28.7438 137.946 30.9993C136.626 33.2273 134.714 34.9326 132.211 36.1154C129.735 37.2981 126.778 37.8895 123.34 37.8895ZM123.34 35.3315C126.448 35.3315 128.814 34.2725 130.437 32.1545C132.06 30.0366 132.871 26.9559 132.871 22.9125C132.871 18.9516 132.06 15.9397 130.437 13.8768C128.814 11.7863 126.448 10.7411 123.34 10.7411C120.232 10.7411 117.853 11.7863 116.202 13.8768C114.58 15.9397 113.768 18.9516 113.768 22.9125C113.768 26.9559 114.58 30.0366 116.202 32.1545C117.825 34.2725 120.205 35.3315 123.34 35.3315Z" fill="white"/>
<path d="M172.765 37.8895C168.282 37.8895 164.706 37.0368 162.038 35.3315C159.397 33.6261 158.008 31.2331 157.871 28.1524H163.441C163.578 30.683 164.403 32.5121 165.916 33.6398C167.457 34.7676 169.712 35.3315 172.683 35.3315C175.131 35.3315 176.932 34.9051 178.088 34.0524C179.243 33.1998 179.82 31.9345 179.82 30.2566C179.82 29.3489 179.614 28.565 179.202 27.9048C178.789 27.2447 177.978 26.6396 176.767 26.0895C175.585 25.5393 173.838 25.0442 171.527 24.6041C167.897 23.889 164.83 22.8712 162.327 21.551C159.851 20.2307 158.613 18.2915 158.613 15.7334C158.613 10.7273 163.166 8.2243 172.27 8.2243C176.726 8.2243 180.082 8.96697 182.337 10.4523C184.62 11.9101 185.872 13.863 186.092 16.3111H180.604C180.219 14.3031 179.312 12.8866 177.881 12.0614C176.451 11.2087 174.498 10.7824 172.023 10.7824C169.85 10.7824 168.227 11.1537 167.154 11.8964C166.109 12.639 165.586 13.588 165.586 14.7432C165.586 15.3759 165.765 15.9397 166.122 16.4348C166.508 16.93 167.264 17.4251 168.392 17.9202C169.547 18.3878 171.225 18.8691 173.425 19.3642C176.534 20.0519 178.995 20.7395 180.811 21.4272C182.626 22.1148 184.084 23.105 185.184 24.3978C186.284 25.6631 186.835 27.3547 186.835 29.4727C186.835 31.2331 186.243 32.7459 185.06 34.0112C183.905 35.2765 182.269 36.2392 180.151 36.8993C178.033 37.5595 175.571 37.8895 172.765 37.8895Z" fill="white"/>
<path d="M205.131 11.1537H193.166V8.59563H224.069V11.1537H212.104V37.4769H205.131V11.1537Z" fill="white"/>
<path d="M272.296 8.59563H284.426C288.772 8.59563 292.114 9.28328 294.452 10.6586C296.817 12.0064 298 14.3031 298 17.5488C298 20.7395 296.831 23.0363 294.493 24.4391C292.182 25.8144 288.827 26.502 284.426 26.502H279.31V37.4769H272.296V8.59563ZM284.467 23.9027C286.668 23.9027 288.304 23.4489 289.377 22.5412C290.477 21.6335 291.027 19.9694 291.027 17.5488C291.027 15.1558 290.491 13.4917 289.418 12.5565C288.345 11.6213 286.695 11.1537 284.467 11.1537H279.31V23.9027H284.467Z" fill="white"/>
</svg>
