<svg width="24" height="20" viewBox="0 0 24 20" fill="none" xmlns="http://www.w3.org/2000/svg">
<path d="M0.214844 5.84714L11.6298 11.7839C11.7443 11.8435 11.8715 11.8746 12.0006 11.8746C12.1296 11.8746 12.2568 11.8435 12.3713 11.7839L23.7863 5.84822V16.1607C23.7863 17.0502 23.446 17.9059 22.8352 18.5524C22.2244 19.1989 21.3893 19.5871 20.5013 19.6375L20.3041 19.6429H3.69699C2.80755 19.6429 1.95181 19.3026 1.30531 18.6918C0.658808 18.0809 0.270557 17.2459 0.220201 16.3579L0.214844 16.1607V5.84714ZM3.69699 0.357142H20.3041C21.1936 0.357084 22.0493 0.697379 22.6958 1.30822C23.3423 1.91906 23.7306 2.75414 23.7809 3.64214L23.7863 3.83929V4.03643L12.0006 10.165L0.214844 4.03643V3.83929C0.214786 2.94985 0.55508 2.09411 1.16592 1.44761C1.77676 0.801107 2.61184 0.412855 3.49984 0.3625L3.69699 0.357142H20.3041H3.69699Z" fill="#A50000"/>
</svg>
