<svg width="40" height="40" viewBox="0 0 40 40" fill="none" xmlns="http://www.w3.org/2000/svg">
<circle cx="19.9998" cy="19.9999" r="19.3998" fill="white" stroke="white" stroke-width="1.2"/>
<path d="M19.9998 0.600365C23.1063 0.600365 26.1673 1.34637 28.9255 2.77563C31.6837 4.2049 34.0582 6.27562 35.8495 8.81362C37.6408 11.3516 38.7964 14.2827 39.2192 17.3603C39.6419 20.4379 39.3194 23.572 38.2787 26.4989C37.2381 29.4259 35.5098 32.0602 33.2391 34.1802C30.9685 36.3002 28.2219 37.8439 25.2305 38.6815C22.2391 39.5191 19.0903 39.6261 16.0489 38.9934C13.0075 38.3608 10.1625 37.007 7.75327 35.0459" stroke="#C4C4C4" stroke-width="1.2"/>
<path d="M23.6362 20C23.6366 20.2125 23.5626 20.4183 23.4271 20.5819L18.8817 26.0364C18.7274 26.222 18.5057 26.3388 18.2653 26.3609C18.0249 26.3831 17.7855 26.3088 17.5999 26.1545C17.4142 26.0002 17.2975 25.7785 17.2753 25.5381C17.2532 25.2977 17.3274 25.0584 17.4817 24.8727L21.5544 20L17.6272 15.1274C17.5517 15.0344 17.4953 14.9274 17.4612 14.8125C17.4272 14.6977 17.4162 14.5772 17.4289 14.4581C17.4416 14.339 17.4776 14.2236 17.5351 14.1184C17.5925 14.0133 17.6701 13.9206 17.7635 13.8456C17.857 13.7623 17.9667 13.6992 18.0856 13.6603C18.2046 13.6214 18.3303 13.6075 18.4549 13.6195C18.5795 13.6314 18.7003 13.669 18.8097 13.7298C18.9192 13.7906 19.0148 13.8733 19.0908 13.9728L23.4817 19.4273C23.5958 19.5956 23.6502 19.7972 23.6362 20Z" fill="#C4C4C4"/>
</svg>
