<svg width="10" height="7" viewBox="0 0 10 7" fill="none" xmlns="http://www.w3.org/2000/svg">
<path d="M5.00002 6.08772C4.84425 6.08807 4.6933 6.02525 4.57335 5.91017L0.573354 2.05053C0.43721 1.9195 0.351594 1.73122 0.335341 1.5271C0.319087 1.32298 0.373529 1.11974 0.486688 0.962104C0.599847 0.804463 0.762454 0.705329 0.938739 0.686509C1.11502 0.66769 1.29054 0.730727 1.42669 0.861753L5.00002 4.32L8.57336 0.985262C8.64155 0.921141 8.72001 0.873257 8.80424 0.844362C8.88846 0.815468 8.97679 0.806132 9.06414 0.816892C9.1515 0.827652 9.23615 0.858295 9.31324 0.907061C9.39033 0.955827 9.45834 1.02175 9.51336 1.10105C9.57441 1.18042 9.62065 1.27354 9.64918 1.37456C9.6777 1.47559 9.68791 1.58235 9.67914 1.68815C9.67038 1.79395 9.64285 1.89652 9.59826 1.98943C9.55367 2.08233 9.49299 2.16358 9.42002 2.22807L5.42002 5.95649C5.29663 6.05338 5.14876 6.09958 5.00002 6.08772Z" fill="#494949"/>
</svg>
