<svg width="46" height="46" viewBox="0 0 46 46" fill="none" xmlns="http://www.w3.org/2000/svg">
<path d="M8.90332 22.2581H10.3872V23.7419H8.90332V22.2581Z" fill="#A50000"/>
<path d="M8.90332 17.8064H10.3872V19.2903H8.90332V17.8064Z" fill="#A50000"/>
<path d="M8.90332 26.7097H10.3872V28.1936H8.90332V26.7097Z" fill="#A50000"/>
<path d="M25.9677 2.96777C20.9687 2.96777 16.2201 4.81066 12.5267 8.16132H10.1839C9.73645 8.16132 9.29883 8.24066 8.88113 8.39716L5.37541 9.71185C3.93537 10.252 2.96774 11.6478 2.96774 13.1857V16.3226H0V29.6774H2.96774V32.8144C2.96774 34.3515 3.93537 35.7481 5.37541 36.2889L8.8804 37.6029C9.29629 37.7594 9.73573 37.8387 10.1839 37.8387H12.526C16.2201 41.1894 20.9687 43.0323 25.9677 43.0323C37.0138 43.0323 46 34.0461 46 23C46 11.954 37.0138 2.96777 25.9677 2.96777V2.96777ZM1.48387 28.1936V17.8065H2.96774V28.1936H1.48387ZM43.3438 29.4854L37.8068 30.6248C39.2291 28.4243 40.0645 25.8098 40.0645 23C40.0645 21.4759 39.8145 20.0116 39.365 18.6361L41.3524 12.6492C43.3489 15.6082 44.5161 19.1701 44.5161 23C44.5161 25.2809 44.0999 27.4658 43.3438 29.4854ZM13.3548 23C13.3548 16.0451 19.0128 10.3871 25.9677 10.3871C32.9227 10.3871 38.5806 16.0451 38.5806 23C38.5806 29.955 32.9227 35.6129 25.9677 35.6129C19.0128 35.6129 13.3548 29.955 13.3548 23ZM11.871 32.6452H11.129C9.08364 32.6452 7.41935 30.9809 7.41935 28.9355V17.0645C7.41935 15.0192 9.08364 13.3549 11.129 13.3549H11.871V32.6452ZM13.3548 9.4137C16.0386 6.92017 19.3421 5.30335 22.8968 4.71067L26.6546 8.93804C26.4257 8.92717 26.2 8.90326 25.9677 8.90326C20.4442 8.90326 15.6651 12.1047 13.3548 16.7425V9.4137ZM40.2692 11.2019L38.4908 16.5577C36.5758 12.8509 33.0734 10.0955 28.8811 9.21046L24.6947 4.50055C25.1175 4.47084 25.541 4.45164 25.9677 4.45164C31.7177 4.45164 36.8646 7.08175 40.2692 11.2019ZM10.1839 36.3549C9.91506 36.3549 9.65241 36.3074 9.40171 36.2132L5.896 34.8993C5.03197 34.575 4.45161 33.7374 4.45161 32.8144V13.1857C4.45161 12.2626 5.03197 11.4258 5.896 11.1015L9.40244 9.78684C9.65241 9.69265 9.91506 9.64519 10.1839 9.64519H11.871V11.871H11.129C8.26599 11.871 5.93548 14.2008 5.93548 17.0645V28.9355C5.93548 31.7986 8.26599 34.1291 11.129 34.1291H11.871V36.3549H10.1839ZM13.3548 36.5864V29.2576C15.2474 33.0564 18.7933 35.8904 23.0543 36.7903L27.24 41.5002C26.8194 41.5285 26.3959 41.5484 25.9677 41.5484C21.264 41.5484 16.799 39.7856 13.3548 36.5864ZM29.038 41.2894L25.2801 37.062C25.5091 37.0729 25.7355 37.0968 25.9677 37.0968C30.115 37.0968 33.8381 35.2858 36.4193 32.4257L42.6258 31.1479C40.037 36.4201 35.0181 40.2884 29.038 41.2894Z" fill="#A50000"/>
<path d="M23.7419 23C23.7419 24.227 24.7407 25.2258 25.9677 25.2258C27.1948 25.2258 28.1936 24.227 28.1936 23C28.1936 21.773 27.1948 20.7742 25.9677 20.7742C24.7407 20.7742 23.7419 21.773 23.7419 23ZM26.7097 23C26.7097 23.4086 26.3771 23.7419 25.9677 23.7419C25.5584 23.7419 25.2258 23.4086 25.2258 23C25.2258 22.5913 25.5584 22.258 25.9677 22.258C26.3771 22.258 26.7097 22.5913 26.7097 23Z" fill="#A50000"/>
<path d="M25.9677 16.3225C27.1948 16.3225 28.1936 15.3237 28.1936 14.0967C28.1936 12.8696 27.1948 11.8708 25.9677 11.8708C24.7407 11.8708 23.7419 12.8696 23.7419 14.0967C23.7419 15.3237 24.7407 16.3225 25.9677 16.3225ZM25.9677 13.3547C26.3771 13.3547 26.7097 13.688 26.7097 14.0967C26.7097 14.5053 26.3771 14.8386 25.9677 14.8386C25.5584 14.8386 25.2258 14.5053 25.2258 14.0967C25.2258 13.688 25.5584 13.3547 25.9677 13.3547Z" fill="#A50000"/>
<path d="M17.0644 20.7742C15.8374 20.7742 14.8386 21.773 14.8386 23C14.8386 24.227 15.8374 25.2258 17.0644 25.2258C18.2914 25.2258 19.2902 24.227 19.2902 23C19.2902 21.773 18.2914 20.7742 17.0644 20.7742ZM17.0644 23.7419C16.6551 23.7419 16.3225 23.4086 16.3225 23C16.3225 22.5913 16.6551 22.258 17.0644 22.258C17.4738 22.258 17.8064 22.5913 17.8064 23C17.8064 23.4086 17.4738 23.7419 17.0644 23.7419Z" fill="#A50000"/>
<path d="M28.1936 31.9033C28.1936 30.6763 27.1948 29.6775 25.9677 29.6775C24.7407 29.6775 23.7419 30.6763 23.7419 31.9033C23.7419 33.1303 24.7407 34.1291 25.9677 34.1291C27.1948 34.1291 28.1936 33.1303 28.1936 31.9033ZM25.2258 31.9033C25.2258 31.4939 25.5584 31.1614 25.9677 31.1614C26.3771 31.1614 26.7097 31.4939 26.7097 31.9033C26.7097 32.3127 26.3771 32.6452 25.9677 32.6452C25.5584 32.6452 25.2258 32.3127 25.2258 31.9033Z" fill="#A50000"/>
<path d="M34.8711 25.2258C36.0981 25.2258 37.0969 24.227 37.0969 23C37.0969 21.773 36.0981 20.7742 34.8711 20.7742C33.6441 20.7742 32.6453 21.773 32.6453 23C32.6453 24.227 33.6441 25.2258 34.8711 25.2258ZM34.8711 22.258C35.2804 22.258 35.613 22.5913 35.613 23C35.613 23.4086 35.2804 23.7419 34.8711 23.7419C34.4617 23.7419 34.1291 23.4086 34.1291 23C34.1291 22.5913 34.4617 22.258 34.8711 22.258Z" fill="#A50000"/>
<path d="M15.5806 8.90332H17.0644V10.3872H15.5806V8.90332Z" fill="#A50000"/>
<path d="M20.0322 6.67749H21.5161V8.16136H20.0322V6.67749Z" fill="#A50000"/>
<path d="M18.2114 37.7605L19.4957 37.0193L20.2376 38.3043L18.953 39.0458L18.2114 37.7605Z" fill="#A50000"/>
<path d="M14.0569 35.0177L15.3422 34.2761L16.0838 35.5611L14.7988 36.303L14.0569 35.0177Z" fill="#A50000"/>
<path d="M34.8708 35.6128H36.3547V37.0967H34.8708V35.6128Z" fill="#A50000"/>
<path d="M30.4194 37.8386H31.9033V39.3225H30.4194V37.8386Z" fill="#A50000"/>
<path d="M41.3403 21.5969L42.0819 20.313L43.3662 21.0546L42.6246 22.3388L41.3403 21.5969Z" fill="#A50000"/>
<path d="M41.0437 26.5627L41.7853 25.2773L43.0706 26.0193L42.3287 27.3043L41.0437 26.5627Z" fill="#A50000"/>
<path d="M31.6956 7.6986L32.9798 6.95703L33.7218 8.24129L32.4375 8.98286L31.6956 7.6986Z" fill="#A50000"/>
<path d="M35.8513 10.4419L37.1363 9.69995L37.8782 10.9853L36.5929 11.7269L35.8513 10.4419Z" fill="#A50000"/>
<path d="M25.9677 19.2903C28.0131 19.2903 29.6774 20.9546 29.6774 22.9999C29.6774 23.7716 29.4393 24.5135 28.9887 25.1464L30.1976 26.0072C30.8279 25.1211 31.1612 24.0817 31.1612 22.9999C31.1612 20.1362 28.8307 17.8064 25.9677 17.8064C24.8859 17.8064 23.8466 18.1397 22.9604 18.77L23.8212 19.9789C24.4541 19.5283 25.196 19.2903 25.9677 19.2903Z" fill="#A50000"/>
<path d="M28.9749 27.2298L28.1142 26.0209C27.4813 26.4716 26.7394 26.7096 25.9677 26.7096C23.9223 26.7096 22.258 25.0453 22.258 22.9999C22.258 22.2283 22.4961 21.4863 22.9467 20.8534L21.7378 19.9927C21.1075 20.8781 20.7742 21.9182 20.7742 22.9999C20.7742 25.8629 23.1047 28.1935 25.9677 28.1935C27.0495 28.1935 28.0888 27.8602 28.9749 27.2298Z" fill="#A50000"/>
</svg>
