<svg width="46" height="46" viewBox="0 0 46 46" fill="none" xmlns="http://www.w3.org/2000/svg">
<path d="M10.3979 14.7887H17.7837C18.1558 14.7887 18.4575 14.4871 18.4575 14.1149C18.4575 13.7428 18.1558 13.4411 17.7837 13.4411H10.6067L12.223 8.56527C12.2393 8.5164 12.2536 8.4792 12.2655 8.45117H26.4498C26.4614 8.47893 26.4751 8.51568 26.4909 8.56393L28.11 13.4411H20.9803C20.6082 13.4411 20.3065 13.7428 20.3065 14.1149C20.3065 14.4871 20.6082 14.7887 20.9803 14.7887H28.319C28.7098 14.7887 29.1108 14.5825 29.3407 14.2633C29.5423 13.9833 29.5975 13.642 29.4926 13.3283L27.7711 8.14301C27.4915 7.28383 26.9778 7.10352 26.5963 7.10352H12.1205C11.5699 7.10352 11.1743 7.45157 10.9442 8.13959L9.22469 13.327C9.1194 13.642 9.17456 13.9833 9.37617 14.2633C9.60608 14.5825 10.0071 14.7887 10.3979 14.7887Z" fill="#A50000"/>
<path d="M26.2285 18.6905V20.2488C26.2285 21.0809 26.9067 21.7579 27.7401 21.7579H31.8532C32.6867 21.7579 33.3648 21.0809 33.3648 20.2488V18.6905C33.3648 17.8584 32.6867 17.1814 31.8532 17.1814H27.7401C26.9067 17.1815 26.2285 17.8585 26.2285 18.6905ZM32.0172 18.6905V20.2488C32.0172 20.3363 31.9421 20.4102 31.8533 20.4102H27.7402C27.6514 20.4102 27.5763 20.3363 27.5763 20.2488V18.6905C27.5763 18.603 27.6514 18.5291 27.7402 18.5291H31.8533C31.9421 18.5291 32.0172 18.603 32.0172 18.6905Z" fill="#A50000"/>
<path d="M23.6612 18.6719H15.0554C14.6833 18.6719 14.3816 18.9736 14.3816 19.3457C14.3816 19.7178 14.6833 20.0195 15.0554 20.0195H23.6612C24.0334 20.0195 24.335 19.7178 24.335 19.3457C24.335 18.9736 24.0333 18.6719 23.6612 18.6719Z" fill="#A50000"/>
<path d="M22.1371 21.3501H16.5789C16.2067 21.3501 15.905 21.6518 15.905 22.0239C15.905 22.3961 16.2067 22.6978 16.5789 22.6978H22.1371C22.5093 22.6978 22.811 22.3961 22.811 22.0239C22.811 21.6518 22.5093 21.3501 22.1371 21.3501Z" fill="#A50000"/>
<path d="M5.35156 18.6905V20.2488C5.35156 21.0809 6.02961 21.7579 6.86318 21.7579H10.9763C11.8098 21.7579 12.4879 21.0809 12.4879 20.2488V18.6905C12.4879 17.8584 11.8098 17.1814 10.9763 17.1814H6.86318C6.0297 17.1815 5.35156 17.8585 5.35156 18.6905ZM6.69922 18.6905C6.69922 18.603 6.77424 18.5291 6.86318 18.5291H10.9763C11.0652 18.5291 11.1403 18.603 11.1403 18.6905V20.2488C11.1403 20.3363 11.0652 20.4102 10.9763 20.4102H6.86318C6.77433 20.4102 6.69922 20.3363 6.69922 20.2488V18.6905Z" fill="#A50000"/>
<path d="M44.5486 29.1023H44.1603C44.0069 28.6231 43.813 28.1569 43.5803 27.7082L43.854 27.4342C44.1274 27.1617 44.278 26.798 44.278 26.4102C44.278 26.0223 44.1274 25.6587 43.854 25.3862L42.0187 23.5564C41.4539 22.9934 40.5349 22.9936 39.9712 23.5555L39.6934 23.8313C39.2424 23.5987 38.7739 23.4049 38.2921 23.2517V22.8669C38.2921 22.1594 37.7813 21.5697 37.1088 21.4436C37.1088 21.4436 37.1109 20.1785 37.1129 20.0078C37.1288 18.6682 37.1424 17.511 36.0976 16.1888C37.5665 15.9914 38.7033 14.7332 38.7033 13.2144C38.7033 11.5605 37.3533 10.2149 35.6941 10.2149H32.2523L30.7225 5.781C30.3763 4.78598 29.1078 3.72852 27.4391 3.72852H11.2747C9.60259 3.72852 8.33606 4.78705 7.9934 5.78261L6.46408 10.2149H3.01965C1.36176 10.2149 0.0130273 11.5605 0.0130273 13.2144C0.0130273 14.7339 1.14973 15.9925 2.6185 16.189C1.57227 17.5132 1.58547 18.6725 1.60093 20.0147C1.60281 20.1833 1.60488 20.3576 1.60488 20.5398L1.6118 24.8657C0.679309 25.1536 0 26.022 0 27.0458V27.7193C0 28.7423 0.679758 29.6099 1.61279 29.8973V32.5717C1.61279 33.6384 2.48238 34.5062 3.55116 34.5062H6.93378C8.00256 34.5062 8.87216 33.6384 8.87216 32.5717V29.9984H14.9243C15.2964 29.9984 15.5981 29.6967 15.5981 29.3246C15.5981 28.9524 15.2964 28.6507 14.9243 28.6507H8.19833H2.28661C1.76884 28.6507 1.34766 28.2329 1.34766 27.7193V27.0458C1.34766 26.5309 1.76884 26.1118 2.28715 26.1118H2.28769L26.8432 26.092C26.8202 26.1953 26.8071 26.3017 26.8071 26.4103C26.8071 26.7992 26.9591 27.1635 27.232 27.4333L27.5067 27.7083C27.3479 28.0145 27.2086 28.3295 27.0865 28.6507H18.1211C17.749 28.6507 17.4473 28.9524 17.4473 29.3246C17.4473 29.6967 17.749 29.9984 18.1211 29.9984H25.1974C25.1266 30.1689 25.087 30.3555 25.087 30.5514V33.1381C25.087 33.9371 25.7381 34.5871 26.5384 34.5871H26.9266C27.0802 35.0677 27.274 35.5344 27.5061 35.9828L27.2349 36.2531C26.959 36.5259 26.8069 36.8902 26.8069 37.279C26.8069 37.668 26.9589 38.0324 27.2328 38.3032L29.0661 40.1308C29.339 40.4053 29.7035 40.5565 30.0923 40.5566H30.0924C30.4811 40.5566 30.8457 40.4054 31.1166 40.1328L31.3918 39.8585C31.8424 40.0906 32.3115 40.2844 32.7945 40.4378V40.8225C32.7945 41.6215 33.4456 42.2715 34.2459 42.2715H36.8405C37.6408 42.2715 38.2919 41.6215 38.2919 40.8225V40.4377C38.7736 40.2845 39.2422 40.0906 39.6931 39.858L39.9679 40.1309C40.241 40.4054 40.6055 40.5566 40.9943 40.5566C41.3829 40.5566 41.7474 40.4054 42.0184 40.1329L43.8537 38.3032C44.1271 38.0306 44.2777 37.6669 44.2777 37.279C44.2777 36.8913 44.1271 36.5276 43.8537 36.2552L43.5805 35.9828C43.8128 35.5344 44.0065 35.0675 44.1601 34.5871H44.5483C45.3486 34.5871 45.9997 33.9371 45.9997 33.1381V30.5514C46 29.7523 45.3489 29.1023 44.5486 29.1023ZM7.5245 29.9984V32.5717C7.5245 32.8898 7.25398 33.1585 6.93378 33.1585H3.55116C3.23096 33.1585 2.96044 32.8898 2.96044 32.5717V29.9984H7.5245ZM35.6941 11.5625C36.6102 11.5625 37.3556 12.3036 37.3556 13.2144C37.3556 14.1267 36.6102 14.8689 35.6941 14.8689H34.8033L33.3488 13.3931L32.7172 11.5625H35.6941ZM9.26747 6.22168C9.40493 5.82223 10.1348 5.07617 11.2747 5.07617H27.4391C28.5778 5.07617 29.3104 5.82358 29.4491 6.22213L32.1247 13.977C32.1575 14.072 32.2112 14.1586 32.2818 14.2302L34.0418 16.0159C34.0435 16.0176 34.0452 16.0194 34.0469 16.0211L35.0594 17.0484C35.7892 17.9851 35.7802 18.7434 35.7654 19.9917C35.7633 20.1676 35.7611 21.4178 35.7611 21.4178H34.2462C33.4459 21.4178 32.7948 22.0678 32.7948 22.8669V23.2516C32.3118 23.4049 31.8427 23.5986 31.392 23.8309L31.1168 23.5564C30.552 22.9934 29.6331 22.9934 29.0684 23.5564L27.8777 24.7434L2.95936 24.7635L2.95262 20.5386C2.95262 20.3521 2.95056 20.1727 2.94858 19.999C2.93421 18.7475 2.92549 17.9873 3.65709 17.0484L4.66999 16.0207C4.67134 16.0193 4.67259 16.018 4.67394 16.0166L6.43461 14.2302C6.50523 14.1586 6.55886 14.072 6.59166 13.977L9.26747 6.22168ZM1.36077 13.2144C1.36077 12.3036 2.10495 11.5625 3.01974 11.5625H5.99914L5.36754 13.3931L3.91305 14.8689H3.01965C2.10495 14.8689 1.36077 14.1267 1.36077 13.2144ZM44.6523 33.1381C44.6523 33.1912 44.6028 33.2395 44.5486 33.2395H43.6532C43.3454 33.2395 43.0767 33.4481 43.0004 33.7463C42.8198 34.4521 42.5389 35.1284 42.1655 35.7562C42.0077 36.0214 42.0504 36.3599 42.2689 36.5778L42.9025 37.2096C42.9254 37.2324 42.9302 37.26 42.9302 37.2791C42.9302 37.2983 42.9254 37.3259 42.9025 37.3488L41.0651 39.1806C41.0417 39.204 41.0138 39.209 40.9944 39.209C40.975 39.209 40.9471 39.204 40.9207 39.1775L40.2845 38.5458C40.0669 38.3297 39.7308 38.288 39.4667 38.444C38.8356 38.8172 38.1578 39.0973 37.4523 39.2767C37.1535 39.3526 36.9445 39.6215 36.9445 39.9298V40.8225C36.9445 40.8775 36.897 40.9238 36.8408 40.9238H34.2462C34.1899 40.9238 34.1424 40.8774 34.1424 40.8225V39.9298C34.1424 39.6216 33.9334 39.3527 33.6347 39.2767C32.926 39.0965 32.2474 38.8164 31.6176 38.444C31.5109 38.3809 31.3925 38.3502 31.2749 38.3502C31.1009 38.3502 30.9287 38.4175 30.799 38.5468L30.1633 39.1805C30.14 39.2039 30.112 39.2089 30.0926 39.2089C30.0732 39.2089 30.0454 39.2039 30.0199 39.1784L28.1825 37.3467C28.1596 37.3242 28.1548 37.2975 28.1548 37.279C28.1548 37.2607 28.1596 37.234 28.1844 37.2095L28.8181 36.5778C29.0367 36.3599 29.0793 36.0214 28.9214 35.7561C28.5481 35.1285 28.2673 34.4524 28.0866 33.7462C28.0103 33.448 27.7416 33.2394 27.4338 33.2394H26.5384C26.4822 33.2394 26.4346 33.193 26.4346 33.138V30.5514C26.4346 30.4964 26.4822 30.45 26.5384 30.45H27.4338C27.7416 30.45 28.0103 30.2414 28.0866 29.9432C28.2665 29.2401 28.5474 28.5648 28.9214 27.9359C29.079 27.6711 29.0368 27.3332 28.819 27.1152L28.1824 26.478C28.1595 26.4555 28.1547 26.4288 28.1547 26.4104C28.1547 26.392 28.1595 26.3653 28.1843 26.3407L28.6329 25.8935C28.6331 25.8933 28.6332 25.8932 28.6334 25.8931L30.0199 24.5109C30.0578 24.473 30.1272 24.473 30.1653 24.5109L30.7989 25.1426C31.0165 25.3596 31.3533 25.4018 31.6175 25.2455C32.2474 24.8731 32.926 24.5929 33.6346 24.4127C33.9333 24.3368 34.1423 24.0679 34.1423 23.7596V22.8669C34.1423 22.8138 34.1918 22.7655 34.2461 22.7655H36.8407C36.895 22.7655 36.9444 22.8138 36.9444 22.8669V23.7596C36.9444 24.0678 37.1534 24.3367 37.4522 24.4127C38.1577 24.5921 38.8354 24.8723 39.4667 25.2455C39.7305 25.4015 40.0668 25.3597 40.2844 25.1436L40.9216 24.511C40.9597 24.4731 41.029 24.4729 41.0671 24.511L42.9025 26.3407C42.9254 26.3636 42.9302 26.3912 42.9302 26.4104C42.9302 26.4295 42.9254 26.4572 42.9015 26.481L42.2679 27.1153C42.0502 27.3333 42.008 27.6712 42.1655 27.9359C42.5397 28.565 42.8205 29.2405 43.0004 29.9432C43.0767 30.2414 43.3454 30.45 43.6532 30.45H44.5486C44.6028 30.45 44.6523 30.4984 44.6523 30.5514V33.1381Z" fill="#A50000"/>
<path d="M35.5424 26.2312C34.3851 26.2312 33.2731 26.58 32.3268 27.2398C32.0215 27.4526 31.9466 27.8726 32.1594 28.1778C32.3723 28.4831 32.7922 28.5582 33.0975 28.3452C33.8167 27.8438 34.6621 27.5789 35.5424 27.5789C37.9037 27.5789 39.8247 29.4932 39.8247 31.8462C39.8247 34.1977 37.9037 36.1109 35.5424 36.1109C33.1826 36.1109 31.2627 34.1977 31.2627 31.8462C31.2627 31.36 31.3432 30.8858 31.5018 30.4365C31.6257 30.0856 31.4417 29.7007 31.0907 29.5768C30.7398 29.453 30.355 29.6369 30.231 29.9878C30.0214 30.5815 29.915 31.2068 29.915 31.8462C29.915 34.9408 32.4395 37.4585 35.5424 37.4585C38.6468 37.4585 41.1724 34.9408 41.1724 31.8462C41.1724 28.7501 38.6468 26.2312 35.5424 26.2312Z" fill="#A50000"/>
</svg>
