<svg width="46" height="46" viewBox="0 0 46 46" fill="none" xmlns="http://www.w3.org/2000/svg">
<g clip-path="url(#clip0)">
<path d="M42.5442 24.0372C42.0364 24.0372 41.5676 24.161 41.1518 24.3476C40.5197 23.5392 39.5385 23.0159 38.4324 23.0149C37.8609 23.0149 37.3351 23.1665 36.8834 23.3937L36.8361 23.42L35.4238 24.2577C34.7906 23.5006 33.8423 23.0154 32.7784 23.0149C32.2068 23.0149 31.681 23.1665 31.2293 23.3937L31.1728 23.4256L25.7654 26.7375C24.5442 26.3767 23.1884 25.981 21.8783 25.6094C20.4962 25.2172 19.167 24.8528 18.1017 24.584C17.5682 24.4493 17.1015 24.3388 16.7201 24.2602C16.5289 24.2206 16.3593 24.1893 16.2087 24.1662C16.0561 24.1436 15.9286 24.1277 15.7848 24.1271C15.6737 24.1277 15.5776 24.1374 15.4682 24.1508C15.0699 24.2032 14.5034 24.3245 13.8352 24.4812C12.4702 24.802 10.7279 25.2686 9.76523 25.5307V23.9014C9.76523 22.7707 8.8401 21.8455 7.70933 21.8455H2.0559C0.925123 21.8456 0 22.7708 0 23.9015V39.8344C0 40.965 0.925123 41.8903 2.0559 41.8903H7.70942C8.8401 41.8903 9.76532 40.9651 9.76532 39.8344V38.5973C10.9855 38.863 13.6936 39.4478 16.5486 40.0343C18.4796 40.4306 20.4753 40.8273 22.1235 41.1264C22.9479 41.276 23.6855 41.4009 24.2894 41.4893C24.8984 41.5772 25.3523 41.6317 25.6981 41.6338C25.9674 41.6328 26.2224 41.5818 26.4979 41.5057C27.0103 41.3613 27.5936 41.1162 28.2612 40.7918C30.5848 39.6591 33.9219 37.5369 37.07 35.4369C40.2123 33.3394 43.1517 31.2682 44.5918 30.2762C45.4933 29.6549 46.0001 28.6049 46.0001 27.4937C45.9986 25.5852 44.453 24.0382 42.5442 24.0372ZM8.22332 39.8342C8.22332 40.1127 7.98793 40.3481 7.70942 40.3481H2.0559C1.77738 40.3481 1.54199 40.1127 1.54199 39.8342V23.9015C1.54199 23.623 1.77738 23.3876 2.0559 23.3876H7.70942C7.98793 23.3876 8.22332 23.623 8.22332 23.9015V39.8342ZM43.7175 29.0061C41.9464 30.2263 37.9832 33.0247 34.1471 35.5165C32.2305 36.7612 30.3459 37.9285 28.8004 38.7745C28.0284 39.1975 27.3397 39.5392 26.7892 39.768C26.5143 39.882 26.2737 39.9679 26.083 40.0208C25.8933 40.0747 25.7503 40.0928 25.6985 40.0917C25.5304 40.0932 25.0854 40.049 24.5134 39.9636C22.4884 39.6671 18.698 38.91 15.4342 38.229C13.8008 37.8883 12.2964 37.5665 11.2002 37.3301C10.5634 37.1929 10.072 37.0854 9.76568 37.0191V27.1296C9.91634 27.0879 10.1136 27.034 10.3506 26.9698C11.1632 26.7493 12.4033 26.4188 13.5156 26.1449C14.0712 26.0077 14.596 25.8855 15.0127 25.7985C15.2204 25.7554 15.4019 25.721 15.5411 25.6988C15.6778 25.6761 15.7841 25.668 15.7852 25.6695C15.7878 25.6689 15.8685 25.6741 15.9785 25.6911C16.4041 25.7548 17.2762 25.9589 18.3385 26.2369C21.54 27.0732 26.5881 28.5847 28.6275 29.204C29.3331 29.4168 29.972 29.7375 30.3914 30.1266C30.6022 30.321 30.7605 30.5286 30.8669 30.7531C30.9732 30.9787 31.0333 31.2229 31.0344 31.5215C31.0339 32.1264 30.7913 32.6671 30.3951 33.0644C30.0014 33.4566 29.4668 33.6966 28.8702 33.7022L26.8806 33.5075L20.0906 32.6357C19.6681 32.5818 19.2816 32.8798 19.2271 33.3023C19.1726 33.7248 19.4718 34.1107 19.8937 34.1652L26.7057 35.0394L28.8139 35.2459H28.8519C30.9083 35.2454 32.5751 33.5786 32.5761 31.5217C32.5771 31.0042 32.4626 30.5175 32.2595 30.0914C31.9538 29.4495 31.4619 28.9525 30.9058 28.5741C30.3476 28.1948 29.7175 27.9246 29.0761 27.7292C28.7184 27.6208 28.2677 27.4841 27.7527 27.3294L31.9368 24.7662C32.2081 24.6326 32.4858 24.557 32.7797 24.5565C33.2783 24.556 33.7285 24.7492 34.0688 25.0618L32.0017 26.2876C31.6358 26.5046 31.515 26.9779 31.7324 27.3438C31.9499 27.7097 32.4227 27.831 32.7891 27.6137L37.5875 24.7679C37.8603 24.6327 38.1395 24.5567 38.4345 24.5567C38.9665 24.5561 39.445 24.7777 39.7919 25.1293L34.2047 28.4428C33.8382 28.6598 33.718 29.1331 33.9354 29.4994C34.1528 29.8654 34.6257 29.9861 34.9921 29.7687L41.0337 26.1854C41.0923 26.1756 41.1514 26.1612 41.209 26.1365C41.3328 26.084 41.4336 26.0008 41.5111 25.9021L41.6997 25.7901C41.9726 25.6548 42.2517 25.5788 42.5467 25.5788C43.0766 25.5794 43.5504 25.7922 43.8994 26.1396C44.2469 26.4887 44.4596 26.963 44.4603 27.4934C44.4576 28.1396 44.1616 28.7039 43.7175 29.0061Z" fill="#A50000"/>
<path d="M27.859 12.8873C27.1821 12.3908 26.3977 12.1178 25.6191 11.8974C25.5133 11.8675 25.4095 11.8434 25.3036 11.8156V7.10939C26.0555 7.22197 26.6116 7.45637 26.9816 7.74567C27.2437 7.94925 27.4242 8.17746 27.548 8.43387C27.6698 8.69038 27.7352 8.97967 27.7356 9.31165C27.7356 9.73724 28.081 10.0826 28.5066 10.0826C28.9321 10.0826 29.2775 9.73724 29.2775 9.31165C29.278 8.77348 29.1675 8.24673 28.9393 7.7693C28.5981 7.05028 27.9906 6.46135 27.2006 6.07789C26.6542 5.8116 26.0169 5.64251 25.3041 5.55878V4.88081C25.3041 4.45468 24.9587 4.10986 24.5331 4.10986C24.107 4.10986 23.7622 4.45468 23.7622 4.88081V5.5161C23.2035 5.55923 22.7018 5.66874 22.2578 5.83783C21.3851 6.16783 20.7463 6.73106 20.351 7.36374C19.9542 7.99687 19.7887 8.68507 19.7882 9.31165C19.7861 9.97101 19.9449 10.5647 20.2436 11.0483C20.5031 11.4719 20.8557 11.8008 21.2402 12.0531C21.916 12.4946 22.688 12.7321 23.4573 12.9377C23.5586 12.9639 23.6603 12.9896 23.7616 13.0147V18.0773C23.0116 17.9945 22.4365 17.7539 22.0506 17.426C21.5773 17.0189 21.3348 16.5003 21.3296 15.8384C21.3296 15.4122 20.9842 15.0674 20.5586 15.0674C20.133 15.0674 19.7876 15.4122 19.7876 15.8384C19.782 16.9161 20.2415 17.9215 21.0545 18.6029C21.752 19.193 22.6822 19.5466 23.7615 19.634V20.3036C23.7615 20.7292 24.1064 21.0746 24.5325 21.0746C24.9581 21.0746 25.3034 20.7292 25.3034 20.3036V19.6061C26.1762 19.5182 26.9912 19.3029 27.6883 18.8712C28.1642 18.5741 28.5769 18.163 28.8555 17.6434C29.1362 17.1253 29.278 16.5127 29.2769 15.8384C29.2779 15.1347 29.1268 14.5108 28.8401 13.9906C28.5904 13.5354 28.2439 13.1709 27.859 12.8873ZM23.7611 11.4209C23.0107 11.2199 22.3637 10.9846 21.9684 10.6813C21.7557 10.5204 21.6086 10.3513 21.5032 10.1452C21.3988 9.93759 21.3305 9.68001 21.3295 9.31156C21.3289 8.83772 21.5032 8.27027 21.9287 7.83812C22.1431 7.61971 22.4226 7.42492 22.8055 7.27893C23.0692 7.17875 23.3878 7.10463 23.761 7.06618V11.4209H23.7611ZM27.4986 16.9106C27.3896 17.1111 27.2494 17.2761 27.0664 17.4241C26.7929 17.6441 26.4136 17.8214 25.9408 17.9391C25.7434 17.9884 25.528 18.0249 25.3034 18.0532V13.4127C25.7748 13.5488 26.2065 13.699 26.556 13.8869C26.9461 14.0935 27.2273 14.3279 27.4185 14.6168C27.6076 14.9072 27.7325 15.2716 27.7351 15.838C27.734 16.3042 27.6414 16.6438 27.4986 16.9106Z" fill="#A50000"/>
</g>
<defs>
<clipPath id="clip0">
<rect width="46" height="46" fill="white"/>
</clipPath>
</defs>
</svg>
