<svg width="46" height="46" viewBox="0 0 46 46" fill="none" xmlns="http://www.w3.org/2000/svg">
<path d="M45.6213 13.139L23.3879 0.105638C23.1541 -0.030835 22.8666 -0.035417 22.6298 0.095665L0.396391 12.3624C0.151836 12.4965 0 12.7541 0 13.0332V45.2332C0 45.6571 0.343473 45.9998 0.766637 45.9998H4.6C5.02316 45.9998 5.36664 45.6571 5.36664 45.2332V18.3999H40.6333V45.2333C40.6333 45.6572 40.9759 45.9999 41.3999 45.9999H45.2333C45.6572 45.9999 45.9999 45.6572 45.9999 45.2333V13.7999C46 13.5277 45.8559 13.2762 45.6213 13.139ZM44.4666 44.4665H42.1666V17.6332C42.1666 17.21 41.824 16.8665 41.4 16.8665H4.6C4.17684 16.8665 3.83336 17.21 3.83336 17.6332V44.4665H1.53336V13.4855L22.9885 1.64816L44.4666 14.2391V44.4665Z" fill="#A50000"/>
<path d="M38.3336 35.2664H29.1336C28.7096 35.2664 28.3669 35.609 28.3669 36.033V45.233C28.3669 45.657 28.7096 45.9996 29.1336 45.9996H38.3336C38.7576 45.9996 39.1002 45.657 39.1002 45.233V36.033C39.1002 35.609 38.7576 35.2664 38.3336 35.2664ZM37.5669 44.4664H29.9002V36.7997H37.5669V44.4664Z" fill="#A50000"/>
<path d="M34.4998 36.0332V38.3332H32.9665V36.0332H31.4331V39.0998C31.4331 39.5238 31.7758 39.8665 32.1997 39.8665H35.2664C35.6904 39.8665 36.033 39.5238 36.033 39.0998V36.0332H34.4998Z" fill="#A50000"/>
<path d="M29.1334 35.2664H19.9334C19.5102 35.2664 19.1667 35.609 19.1667 36.033V45.233C19.1667 45.657 19.5102 45.9996 19.9334 45.9996H29.1334C29.5573 45.9996 29.9 45.657 29.9 45.233V36.033C29.9 35.609 29.5573 35.2664 29.1334 35.2664ZM28.3666 44.4664H20.7V36.7997H28.3666V44.4664Z" fill="#A50000"/>
<path d="M25.3001 36.0332V38.3332H23.7668V36.0332H22.2334V39.0998C22.2334 39.5238 22.5769 39.8665 23 39.8665H26.0667C26.4906 39.8665 26.8333 39.5238 26.8333 39.0998V36.0332H25.3001Z" fill="#A50000"/>
<path d="M38.3336 26.0664H29.1336C28.7096 26.0664 28.3669 26.4091 28.3669 26.833V36.033C28.3669 36.457 28.7096 36.7997 29.1336 36.7997H38.3336C38.7576 36.7997 39.1002 36.457 39.1002 36.033V26.833C39.1002 26.4091 38.7576 26.0664 38.3336 26.0664ZM37.5669 35.2664H29.9002V27.5998H37.5669V35.2664Z" fill="#A50000"/>
<path d="M34.4998 26.833V29.133H32.9665V26.833H31.4331V29.8996C31.4331 30.3236 31.7758 30.6663 32.1997 30.6663H35.2664C35.6904 30.6663 36.033 30.3236 36.033 29.8996V26.833H34.4998Z" fill="#A50000"/>
<path d="M41.4001 22.9998H4.6001V24.5331H41.4001V22.9998Z" fill="#A50000"/>
<path d="M41.4001 19.9331H4.6001V21.4665H41.4001V19.9331Z" fill="#A50000"/>
<path d="M26.8337 10.7329H19.167C18.7439 10.7329 18.4004 11.0764 18.4004 11.4995V14.5662C18.4004 14.9893 18.7439 15.3328 19.167 15.3328H26.8337C27.2576 15.3328 27.6003 14.9893 27.6003 14.5662V11.4995C27.6003 11.0764 27.2576 10.7329 26.8337 10.7329ZM26.0669 13.7996H19.9336V12.2663H26.0669V13.7996Z" fill="#A50000"/>
</svg>
