<svg width="18" height="24" viewBox="0 0 18 24" fill="none" xmlns="http://www.w3.org/2000/svg">
<path d="M16.4243 7.92879C16.3801 7.3992 16.1595 6.91374 15.8064 6.56068C15.4534 6.20762 14.99 5.98696 14.4383 5.98696H13.2688V4.97192C13.2688 3.86861 12.8275 2.87563 12.0993 2.16951C11.3711 1.44132 10.3781 1 9.29689 1C8.19358 1 7.2006 1.44132 6.49448 2.16951C5.7663 2.87563 5.32498 3.86861 5.32498 4.97192V5.98696H4.15547C3.60381 5.98696 3.14042 6.20762 2.78736 6.56068C2.4343 6.91374 2.21364 7.3992 2.16951 7.92879L1 20.992C1 21.0582 1 21.1244 1 21.1464C1 21.6319 1.1986 22.0953 1.55165 22.4263C1.88265 22.7352 2.32397 22.9559 2.78736 23H2.80943C2.87563 23 2.94183 23 2.98596 23H15.6078C15.652 23 15.7182 23 15.7844 23C16.2698 22.9559 16.7111 22.7352 17.0421 22.4263C17.3952 22.0953 17.5938 21.6319 17.5938 21.1244C17.5938 21.0802 17.5938 21.0361 17.5938 20.9699L16.4243 7.92879ZM6.53862 4.97192C6.53862 4.1996 6.84754 3.51555 7.35506 3.00802C7.86259 2.5005 8.54664 2.19157 9.31896 2.19157C10.0913 2.19157 10.7753 2.5005 11.2828 3.00802C11.7904 3.51555 12.0993 4.1996 12.0993 4.97192V5.98696H6.53862V4.97192ZM16.3581 21.1464C16.3581 21.323 16.2919 21.4774 16.1595 21.5878C16.0271 21.7202 15.8285 21.8084 15.652 21.8305C15.652 21.8305 15.6299 21.8305 15.5858 21.8305H2.98596C2.94183 21.8305 2.91976 21.8305 2.91976 21.8305H2.89769C2.6991 21.8084 2.52257 21.7202 2.39017 21.5878C2.25777 21.4774 2.19157 21.323 2.19157 21.1464V21.0802L3.36108 8.03912C3.38315 7.79639 3.49348 7.57573 3.64794 7.42126C3.78034 7.28887 3.95687 7.2006 4.15547 7.2006H5.32498V9.89268C5.32498 10.2237 5.58977 10.4885 5.92076 10.4885C6.25176 10.4885 6.51655 10.2237 6.51655 9.89268V7.2006H12.0331V9.89268C12.0331 10.2237 12.2979 10.4885 12.6289 10.4885C12.9599 10.4885 13.2247 10.2237 13.2247 9.89268V7.2006H14.3942C14.5928 7.2006 14.7693 7.28887 14.9017 7.42126C15.0562 7.57573 15.1665 7.79639 15.1886 8.03912L16.3581 21.1023V21.1464Z" fill="white" stroke="white" stroke-width="0.5"/>
</svg>
