<svg width="20" height="20" viewBox="0 0 20 20" fill="none" xmlns="http://www.w3.org/2000/svg">
<path d="M10 0.3125C4.65812 0.3125 0.3125 4.65812 0.3125 10C0.3125 15.3419 4.65812 19.6875 10 19.6875C15.3419 19.6875 19.6875 15.3419 19.6875 10C19.6875 4.65812 15.3419 0.3125 10 0.3125ZM18.6728 7.37281L15.285 9.4575C15.1616 8.24531 14.6259 7.155 13.8247 6.32219L14.8787 2.36906C16.6753 3.52156 18.0403 5.28875 18.6728 7.37281ZM10 14.6875C7.41531 14.6875 5.3125 12.5847 5.3125 10C5.3125 7.41531 7.41531 5.3125 10 5.3125C12.5847 5.3125 14.6875 7.41531 14.6875 10C14.6875 12.5847 12.5847 14.6875 10 14.6875ZM14.3212 2.03594L13.3047 5.84781C12.4409 5.15875 11.3591 4.73656 10.1803 4.69656L8.00469 1.16156C8.64719 1.01656 9.31437 0.9375 10 0.9375C11.5638 0.9375 13.0359 1.33562 14.3212 2.03594ZM7.37281 1.32719L9.4575 4.715C8.24531 4.83844 7.155 5.37406 6.32219 6.17531L2.36906 5.12125C3.52156 3.32469 5.28875 1.95969 7.37281 1.32719ZM2.03594 5.67875L5.84781 6.69531C5.15875 7.55906 4.73656 8.64094 4.69656 9.81969L1.16156 11.9953C1.01656 11.3528 0.9375 10.6856 0.9375 10C0.9375 8.43625 1.33562 6.96406 2.03594 5.67875ZM1.32719 12.6272L4.715 10.5425C4.83844 11.7547 5.37406 12.845 6.17531 13.6778L5.12125 17.6309C3.32469 16.4784 1.95969 14.7113 1.32719 12.6272ZM5.67875 17.9641L6.69531 14.1522C7.55906 14.8412 8.64094 15.2634 9.81969 15.3034L11.995 18.8384C11.3528 18.9834 10.6856 19.0625 10 19.0625C8.43625 19.0625 6.96406 18.6644 5.67875 17.9641ZM12.6272 18.6728L10.5425 15.285C11.7547 15.1616 12.845 14.6259 13.6778 13.8247L17.6309 14.8787C16.4784 16.6753 14.7113 18.0403 12.6272 18.6728ZM17.9641 14.3212L14.1522 13.3047C14.8412 12.4409 15.2634 11.3591 15.3034 10.1803L18.8384 8.005C18.9834 8.64719 19.0625 9.31437 19.0625 10C19.0625 11.5638 18.6644 13.0359 17.9641 14.3212Z" fill="white"/>
<path d="M10 7.1875C8.44906 7.1875 7.1875 8.44906 7.1875 10C7.1875 11.5509 8.44906 12.8125 10 12.8125C11.5509 12.8125 12.8125 11.5509 12.8125 10C12.8125 8.44906 11.5509 7.1875 10 7.1875ZM10 12.1875C8.79406 12.1875 7.8125 11.2059 7.8125 10C7.8125 8.79406 8.79406 7.8125 10 7.8125C11.2059 7.8125 12.1875 8.79406 12.1875 10C12.1875 11.2059 11.2059 12.1875 10 12.1875Z" fill="white"/>
<path d="M10 8.4375C9.13844 8.4375 8.4375 9.13844 8.4375 10C8.4375 10.8616 9.13844 11.5625 10 11.5625C10.8616 11.5625 11.5625 10.8616 11.5625 10C11.5625 9.13844 10.8616 8.4375 10 8.4375ZM10 10.9375C9.48312 10.9375 9.0625 10.5169 9.0625 10C9.0625 9.48312 9.48312 9.0625 10 9.0625C10.5169 9.0625 10.9375 9.48312 10.9375 10C10.9375 10.5169 10.5169 10.9375 10 10.9375Z" fill="#A50000"/>
<path d="M9.6875 13.75C9.6875 13.5774 9.82741 13.4375 10 13.4375C10.1726 13.4375 10.3125 13.5774 10.3125 13.75C10.3125 13.9226 10.1726 14.0625 10 14.0625C9.82741 14.0625 9.6875 13.9226 9.6875 13.75Z" fill="white"/>
<path d="M9.6875 6.25C9.6875 6.07741 9.82741 5.9375 10 5.9375C10.1726 5.9375 10.3125 6.07741 10.3125 6.25C10.3125 6.42259 10.1726 6.5625 10 6.5625C9.82741 6.5625 9.6875 6.42259 9.6875 6.25Z" fill="white"/>
<path d="M5.9375 10C5.9375 9.82741 6.07741 9.6875 6.25 9.6875C6.42259 9.6875 6.5625 9.82741 6.5625 10C6.5625 10.1726 6.42259 10.3125 6.25 10.3125C6.07741 10.3125 5.9375 10.1726 5.9375 10Z" fill="white"/>
<path d="M13.4375 10C13.4375 9.82741 13.5774 9.6875 13.75 9.6875C13.9226 9.6875 14.0625 9.82741 14.0625 10C14.0625 10.1726 13.9226 10.3125 13.75 10.3125C13.5774 10.3125 13.4375 10.1726 13.4375 10Z" fill="white"/>
</svg>
