<svg width="9" height="16" viewBox="0 0 9 16" fill="none" xmlns="http://www.w3.org/2000/svg">
<path d="M0.99997 8.00012C0.999514 7.76647 1.08089 7.54004 1.22997 7.36012L6.22997 1.36012C6.39971 1.15591 6.64362 1.02748 6.90805 1.0031C7.17247 0.978723 7.43575 1.06038 7.63997 1.23012C7.84419 1.39986 7.97261 1.64377 7.99699 1.9082C8.02137 2.17263 7.93971 2.43591 7.76997 2.64012L3.28997 8.00012L7.60997 13.3601C7.69303 13.4624 7.75507 13.5801 7.7925 13.7064C7.82993 13.8328 7.84202 13.9653 7.82808 14.0963C7.81414 14.2273 7.77445 14.3543 7.71127 14.47C7.6481 14.5856 7.56269 14.6876 7.45997 14.7701C7.35715 14.8617 7.23652 14.9311 7.10565 14.9739C6.97477 15.0166 6.83647 15.032 6.69941 15.0188C6.56235 15.0057 6.42947 14.9644 6.30912 14.8975C6.18876 14.8306 6.08351 14.7396 5.99997 14.6301L1.16997 8.63012C1.04445 8.44504 0.984599 8.22322 0.99997 8.00012Z" fill="white"/>
</svg>
