<svg width="114" height="22" viewBox="0 0 114 22" fill="none" xmlns="http://www.w3.org/2000/svg">
<g opacity="0.8">
<path d="M14.0429 17.2361L0 8.63618L14.0429 0L28.0857 8.63618L14.0429 17.2361Z" fill="#474747"/>
<path d="M14.043 21.5179V17.2361L28.0858 8.63623V12.8817L14.043 21.5179Z" fill="#2C2C2C"/>
<path d="M0 12.918V8.63623L14.0429 17.2361V21.5179L0 12.918Z" fill="#323232"/>
<path d="M20.7922 8.6723L14.0792 4.53564L7.36621 8.6723L14.1155 12.7364L20.7922 8.6723Z" fill="#474747"/>
<path d="M14.1155 14.6959V12.7364L20.7922 8.67236V10.5955L14.1155 14.6959Z" fill="#C2C2C2"/>
<path d="M14.1155 7.72886V6.49512L17.6716 8.67231L15.6395 9.90605V8.67231L14.1155 7.72886Z" fill="#FD1E39"/>
<path d="M14.1155 10.8496L15.6395 9.9061V8.67236L14.1155 9.61581V10.8496Z" fill="#C2C2C2"/>
<path d="M7.36621 10.5955V8.67236L14.1155 12.7364V14.6959L7.36621 10.5955Z" fill="#EEEEEE"/>
<path d="M14.1155 2.61279V4.49969L20.7922 8.67264V10.5958L23.9491 8.63635L14.1155 2.61279Z" fill="#F2F2F2"/>
<path d="M7.36624 8.67264V10.5958L4.24561 8.67264L14.1155 2.61279V4.49969L7.36624 8.67264Z" fill="white"/>
<g clip-path="url(#clip0)">
<path d="M38.4349 8.69859L35.4467 16.4377C35.3962 16.5935 35.2992 16.7305 35.1686 16.8308C35.0379 16.9311 34.8796 16.9901 34.7145 17H33.476C33.0437 16.9661 32.9058 16.6816 33.0625 16.1466L37.3649 5.74469C37.5619 5.24822 38.0567 5.00497 38.8494 5.01494C39.6421 5.02491 40.1387 5.2778 40.339 5.7736L44.6344 16.2553C44.8206 16.7205 44.7023 16.9565 44.2794 16.9631L43.0399 17C42.8724 16.9893 42.712 16.9294 42.5792 16.828C42.4464 16.7266 42.3473 16.5882 42.2946 16.4307L39.2619 8.69859C38.9869 7.84256 38.7113 7.84256 38.4349 8.69859ZM37.609 15.5774C37.609 16.3703 38.0198 16.774 38.8414 16.7886C39.663 16.8033 40.0738 16.4091 40.0738 15.6063C40.0738 14.8087 39.6801 14.41 38.8928 14.41C38.0362 14.3914 37.6083 14.7805 37.609 15.5774Z" fill="#EF233C"/>
<path d="M58.6399 15.7821C58.6399 16.5796 58.2701 16.9734 57.5305 16.9634L56.7327 16.9923L47.9363 17.0003C47.032 16.9757 46.5795 16.47 46.5789 15.483V6.2405C46.5809 5.44827 46.9927 5.04452 47.8143 5.02923C48.6359 5.01395 49.0319 5.41272 49.0024 6.22554V13.4184C49.0024 14.2113 49.3173 14.6004 49.9473 14.5858L53.0738 14.5708H57.59C58.2906 14.5808 58.6405 14.9845 58.6399 15.7821ZM51.3643 11.0257C51.3643 10.2335 51.7748 9.82976 52.5957 9.81448C53.4167 9.79919 53.8278 10.1933 53.8292 10.9968C53.8292 11.7944 53.4355 12.1931 52.6482 12.1931C51.7923 12.2124 51.3643 11.8233 51.3643 11.0257Z" fill="#EF233C"/>
<path d="M60.5327 9.17345V6.2405C60.5327 5.44827 60.9422 5.04452 61.7611 5.02923C62.58 5.01395 62.9761 5.41272 62.9492 6.22554V15.7891C62.9794 16.5966 62.5834 16.9953 61.7611 16.9854C60.9388 16.9754 60.5294 16.5716 60.5327 15.7741V9.17345Z" fill="#D7D7D7"/>
<path d="M75.7829 14.5707C76.4808 14.5806 76.8301 14.9844 76.8308 15.7819C76.8315 16.5795 76.4822 16.9829 75.7829 16.9922L70.8159 17.0002C69.0053 17.0002 67.5456 16.4519 66.4369 15.3553C65.3282 14.2586 64.7722 12.8154 64.7688 11.0256C64.7688 9.23114 65.3221 7.78693 66.4288 6.69297C67.5355 5.599 68.9905 5.03973 70.7937 5.01514L75.7829 5.00018C76.4808 4.99022 76.8301 5.38433 76.8308 6.18254C76.8315 6.98074 76.4919 7.37453 75.8122 7.3639L75.4279 7.39281L70.7937 7.40776C69.7314 7.42704 68.8658 7.7733 68.1968 8.44656C67.5278 9.11982 67.192 9.9795 67.1893 11.0256C67.1893 12.5376 67.8088 13.5977 69.048 14.2058C69.5868 14.4757 70.186 14.6064 70.7897 14.5856L75.7829 14.5707ZM71.5027 12.193C70.7147 12.193 70.3211 11.7942 70.3218 10.9967C70.3224 10.1992 70.7332 9.80504 71.5542 9.81434C72.3751 9.82963 72.7859 10.2334 72.7866 11.0256C72.7873 11.8178 72.3593 12.207 71.5027 12.193Z" fill="#D7D7D7"/>
<path d="M84.7043 5.05078C86.5297 5.05078 87.9934 5.59544 89.0954 6.68474C90.1974 7.77405 90.7484 9.22092 90.7484 11.0254C90.7484 12.8198 90.1947 14.264 89.0873 15.358C87.98 16.452 86.519 16.9993 84.7043 16.9999C82.8943 16.9999 81.4343 16.4516 80.3242 15.355C79.2142 14.2584 78.6595 12.8152 78.6602 11.0254C78.6602 9.23089 79.2138 7.78668 80.3212 6.69272C81.4286 5.59876 82.8896 5.05145 84.7043 5.05078ZM84.7043 7.43643C83.6285 7.43643 82.7545 7.77305 82.0821 8.44631C81.4097 9.11957 81.0752 9.97925 81.0786 11.0254C81.0786 12.5374 81.6985 13.5974 82.9383 14.2056C83.4854 14.4776 84.0899 14.6176 84.7023 14.6143C86.0987 14.6143 87.1409 14.0696 87.8287 12.9803C88.1682 12.4413 88.3363 11.7897 88.333 11.0254C88.333 9.89219 87.9591 8.99728 87.2115 8.34064C86.5243 7.73849 85.6886 7.43709 84.7043 7.43643ZM84.7265 12.1928C85.5131 12.1928 85.9068 11.794 85.9074 10.9964C85.9081 10.1989 85.4973 9.80479 84.675 9.8141C83.8534 9.82938 83.4426 10.2331 83.4426 11.0254C83.4426 11.8176 83.8706 12.2067 84.7265 12.1928Z" fill="#D7D7D7"/>
<path d="M98.2015 8.69884L95.1679 16.431C95.1153 16.5886 95.0162 16.727 94.8834 16.8284C94.7506 16.9299 94.5901 16.9897 94.4226 17.0002L93.1387 16.9634C92.7454 16.9534 92.6422 16.7175 92.8291 16.2555L97.1234 5.77386C97.3305 5.27274 97.8274 5.01985 98.614 5.0152C99.4007 5.01055 99.8952 5.2538 100.098 5.74495L103.395 13.849L106.686 5.77386C106.894 5.27274 107.391 5.01985 108.178 5.0152C108.965 5.01055 109.459 5.2538 109.661 5.74495L113.912 16.2486C114.104 16.7138 113.983 16.9644 113.55 17.0002H112.311C112.146 16.9901 111.988 16.931 111.858 16.8307C111.728 16.7304 111.631 16.5935 111.581 16.438L108.591 8.69884C108.316 7.84282 108.04 7.84282 107.765 8.69884L104.872 16.0661C104.479 16.6895 104.085 17.0009 103.692 17.0002H102.924C102.569 17.0002 102.215 16.7085 101.861 16.1249L99.0275 8.69884C98.7525 7.84282 98.4772 7.84282 98.2015 8.69884ZM108.136 14.3594C107.349 14.3594 106.956 14.7582 106.956 15.5557C106.956 16.3532 107.366 16.747 108.188 16.7371C109.009 16.7231 109.42 16.3197 109.42 15.5268C109.421 14.7339 108.993 14.3448 108.136 14.3594Z" fill="#D7D7D7"/>
</g>
</g>
<defs>
<clipPath id="clip0">
<rect width="81" height="12" fill="white" transform="translate(33 5)"/>
</clipPath>
</defs>
</svg>
