<svg width="46" height="45" viewBox="0 0 46 45" fill="none" xmlns="http://www.w3.org/2000/svg">
<path fill-rule="evenodd" clip-rule="evenodd" d="M32.8151 12.6286C34.7702 14.5573 36.2296 16.919 37.0592 19.5144C37.167 19.852 37.5925 20.1308 37.9127 20.0461C38.5411 19.8809 39.1696 19.7157 39.7982 19.5505C40.2443 21.1927 40.4731 22.8924 40.4731 24.6072C40.4731 35.3951 31.608 44.1404 20.6723 44.1404C9.73652 44.1404 0.871391 35.3951 0.871391 24.6072C0.871391 13.8193 9.73652 5.07404 20.6723 5.07404C22.4106 5.07404 24.1336 5.29983 25.7982 5.7399C25.6308 6.35987 25.4633 6.97983 25.2959 7.59989C25.21 7.91584 25.4927 8.33546 25.8348 8.44195C28.466 9.26038 30.86 10.7 32.8151 12.6286ZM30.2566 24.6073C30.2566 19.3857 25.9655 15.1527 20.6724 15.1527C15.3792 15.1527 11.0882 19.3857 11.0882 24.6073C11.0882 29.8289 15.3792 34.062 20.6724 34.062C25.9656 34.0619 30.2566 29.8289 30.2566 24.6073Z" fill="white" fill-opacity="0.1"/>
<path fill-rule="evenodd" clip-rule="evenodd" d="M20.6726 15.1527C15.3795 15.1527 11.0884 19.3857 11.0884 24.6073C11.0884 29.829 15.3795 34.062 20.6726 34.062C25.9658 34.062 30.2568 29.829 30.2568 24.6073C30.2568 19.3857 25.9659 15.1527 20.6726 15.1527ZM20.6726 22.0287C22.1163 22.0287 23.2865 23.1832 23.2865 24.6073C23.2865 26.0313 22.1162 27.1858 20.6726 27.1858C19.2291 27.1858 18.0588 26.0313 18.0588 24.6073C18.0588 23.1832 19.2291 22.0287 20.6726 22.0287Z" fill="#A2A2A2"/>
<path fill-rule="evenodd" clip-rule="evenodd" d="M32.4066 17.6494C31.832 16.7104 31.1417 15.8403 30.3507 15.06C29.5596 14.2797 28.6776 13.5986 27.7258 13.0319C25.7844 11.9261 25.1809 10.4883 25.8348 8.44226C28.4659 9.2606 30.8599 10.7003 32.815 12.6289C34.7701 14.5576 36.2295 16.9193 37.0591 19.5148C34.985 20.1599 33.5275 19.5645 32.4066 17.6494Z" fill="#494949"/>
<path d="M6.05477 10.1875C9.9592 6.33582 15.1504 4.21463 20.6722 4.21463C22.1872 4.21463 23.6983 4.37983 25.176 4.70524L25.7678 2.51417C25.9166 1.96649 26.2865 1.49935 26.7827 1.23264C27.2645 0.973497 27.818 0.922356 28.341 1.08816C29.737 1.53089 31.0982 2.09654 32.3949 2.77237C33.047 2.42263 33.8191 2.41266 34.4671 2.77907C38.2599 4.87525 40.6745 7.25731 42.7992 10.9986C43.1709 11.6379 43.1607 12.3996 42.8062 13.043C43.4911 14.322 44.0645 15.6648 44.5135 17.042C44.6816 17.558 44.6296 18.104 44.367 18.5794C44.0966 19.0689 43.6231 19.4338 43.0669 19.5808L40.8469 20.1643C41.1767 21.6221 41.3443 23.1129 41.3443 24.6073C41.3443 30.0543 39.194 35.1754 35.2896 39.027C31.385 42.8788 26.1938 45 20.6721 45C15.1504 45 9.95911 42.8787 6.05468 39.027C2.15017 35.1754 -8.7738e-05 30.0543 -8.7738e-05 24.6073C-8.7738e-05 19.1602 2.15034 14.0392 6.05477 10.1875ZM28.1614 12.2873C28.1662 12.2901 28.1711 12.2929 28.1759 12.2959C29.1885 12.8988 30.1273 13.6242 30.9666 14.452C31.8056 15.2798 32.5411 16.206 33.1523 17.205C33.1552 17.2098 33.158 17.2145 33.1609 17.2194C33.9041 18.4893 34.7373 19.0104 35.9142 18.8859C35.0984 16.7803 33.8261 14.8419 32.1987 13.2365C30.5714 11.6311 28.6066 10.3761 26.4719 9.57129C26.3458 10.7321 26.874 11.5541 28.1614 12.2873ZM42.837 17.7568C42.8705 17.6963 42.8762 17.6345 42.8547 17.5684C42.3837 16.1233 41.7656 14.7193 41.0174 13.3949C40.8278 13.0594 40.8871 12.6404 41.1624 12.3687C41.3318 12.2017 41.3784 12.0088 41.2872 11.8529C41.2853 11.8497 41.2834 11.8464 41.2815 11.8431C39.3001 8.35284 37.1497 6.23131 33.6115 4.2766C33.6081 4.2748 33.6048 4.27291 33.6015 4.2711C33.4434 4.18103 33.2479 4.22709 33.0786 4.39418C32.8032 4.66596 32.3786 4.72441 32.0383 4.53729C30.6958 3.79914 29.2724 3.18941 27.8077 2.72484C27.7406 2.70352 27.6781 2.70911 27.6166 2.7422C27.5373 2.78483 27.477 2.86391 27.4514 2.95811L26.184 7.64985C28.8978 8.50936 31.4021 10.0195 33.4311 12.0211C35.4601 14.0227 36.9909 16.4931 37.8621 19.1701L42.6172 17.9202C42.7137 17.8945 42.7938 17.8351 42.837 17.7568ZM20.6722 43.2809C31.11 43.2809 39.6018 34.904 39.6018 24.6073C39.6018 23.2622 39.4535 21.9203 39.1618 20.6073L38.1382 20.8764C38.0252 20.9063 37.9095 20.9205 37.7935 20.9205C37.4046 20.9205 37.0129 20.76 36.7099 20.4942C36.3211 20.5772 35.9466 20.6195 35.5875 20.6195C33.9632 20.6195 32.6454 19.7723 31.6563 18.0865C31.1186 17.209 30.472 16.3952 29.7344 15.6676C28.9967 14.9399 28.1717 14.302 27.2824 13.7716C25.1954 12.5802 24.3771 10.9048 24.8416 8.78595C24.492 8.39814 24.3223 7.86258 24.4537 7.37858L24.7268 6.36763C23.3958 6.07977 22.0356 5.93357 20.6721 5.93357C10.2343 5.93357 1.74249 14.3106 1.74249 24.6073C1.74249 34.904 10.2344 43.2809 20.6722 43.2809Z" fill="white"/>
<path d="M25.6532 7.45026L25.4545 8.07181C25.0963 9.19237 25.0567 10.2315 25.4455 11.1709C25.8313 12.1033 26.5967 12.8342 27.6407 13.4299C28.545 13.9689 29.3831 14.6164 30.1349 15.3579L25.6532 7.45026ZM25.6532 7.45026L26.2763 7.64406M25.6532 7.45026L26.2763 7.64406M26.2763 7.64406C29.0081 8.49374 31.4934 9.9884 33.523 11.9905C35.5526 13.9927 37.0692 16.4459 37.9316 19.1443L38.1334 19.7756M26.2763 7.64406L38.1334 19.7756M38.1334 19.7756L37.5005 19.9725M38.1334 19.7756L37.5005 19.9725M37.5005 19.9725C36.3682 20.3247 35.3216 20.3629 34.3758 19.982C33.4351 19.6031 32.6939 18.8497 32.0884 17.8171M37.5005 19.9725L32.0884 17.8171M32.0884 17.8171C31.5425 16.9259 30.8867 16.0996 30.1349 15.358L32.0884 17.8171Z" fill="#494949" stroke="white" stroke-width="1.3153"/>
<path d="M23.7494 7.75471L23.7494 7.75472C27.1502 8.8278 30.2433 10.7152 32.7686 13.2425C35.2939 15.7697 37.1797 18.8652 38.2519 22.2683C38.2568 22.2837 38.2705 22.3136 38.3013 22.3512C38.3318 22.3884 38.3716 22.424 38.4157 22.4523C38.4602 22.481 38.4987 22.4956 38.5239 22.5013C38.5298 22.5027 38.5342 22.5034 38.5371 22.5037L40.8895 21.8765L40.8895 21.8764L44.7061 20.8587C44.7061 20.8587 44.7062 20.8587 44.7063 20.8587C45.1904 20.7287 45.4377 20.269 45.3054 19.8569L45.9313 19.6558L45.3054 19.8569C44.7037 17.984 43.9197 16.1794 42.9676 14.4695L42.7262 14.0359L43.077 13.6848C43.4736 13.2877 43.4894 12.8261 43.3026 12.5022L43.3025 12.5022L43.2983 12.4947C40.7762 7.98744 38.018 5.22715 33.5144 2.70312L33.5144 2.70317L33.5069 2.69888C33.1837 2.51218 32.7232 2.52775 32.3266 2.9246L31.9752 3.27617L31.5411 3.03409C29.8326 2.08134 28.0294 1.29672 26.1581 0.694597L26.1581 0.694592C25.7478 0.562566 25.2884 0.808807 25.1582 1.29402C25.1581 1.2942 25.1581 1.29438 25.1581 1.29456L24.1411 5.11407L24.1411 5.11411L23.5142 7.46857C23.5146 7.47163 23.5153 7.4762 23.5167 7.48238C23.5225 7.50774 23.5372 7.54642 23.5658 7.59105C23.5941 7.6352 23.6297 7.67503 23.6669 7.70548C23.7044 7.73631 23.7341 7.74991 23.7494 7.75471ZM41.059 22.5119L38.6949 23.1423L43.5422 14.1496C44.5154 15.8972 45.3166 17.7416 45.9315 19.6558C46.1925 20.4681 45.6791 21.2787 44.8764 21.4939L41.059 22.5119Z" fill="#A50000" stroke="white" stroke-width="1.3153"/>
<path d="M37.398 15.0729C37.1593 14.6607 37.3044 14.1357 37.7222 13.9002C38.14 13.6646 38.6724 13.8079 38.9111 14.22L38.9115 14.2206C39.1502 14.6328 39.0049 15.1575 38.5871 15.3931C38.4508 15.47 38.3023 15.5063 38.1558 15.5063C37.8531 15.5063 37.559 15.3506 37.398 15.0729Z" fill="black"/>
<path d="M30.7687 8.22117C30.6128 8.22117 30.455 8.18 30.3126 8.09353C29.9028 7.8447 29.775 7.31532 30.0273 6.911C30.2795 6.50669 30.8162 6.38051 31.226 6.62951L31.2265 6.62986C31.6364 6.87869 31.7639 7.40789 31.5116 7.81221C31.347 8.076 31.0613 8.22117 30.7687 8.22117Z" fill="black"/>
<path d="M20.6729 14.2931C26.4381 14.2931 31.1284 18.92 31.1284 24.6072C31.1284 28.7057 28.6682 32.416 24.8609 34.0597C24.7472 34.1088 24.6287 34.1321 24.512 34.1321C24.1764 34.132 23.8565 33.9397 23.7133 33.617C23.5204 33.1821 23.7213 32.6752 24.1622 32.4849C27.3354 31.115 29.3858 28.0228 29.3858 24.6073C29.3858 19.8679 25.4772 16.0122 20.6729 16.0122C15.8686 16.0122 11.96 19.8679 11.96 24.6073C11.96 28.0226 14.0102 31.1147 17.1831 32.4847C17.6239 32.6751 17.8248 33.1818 17.6319 33.6167C17.4389 34.0517 16.9253 34.2497 16.4843 34.0595C12.6773 32.4157 10.2173 28.7054 10.2173 24.6072C10.2174 18.92 14.9078 14.2931 20.6729 14.2931Z" fill="black"/>
<path d="M19.801 18.5908C19.801 18.1162 20.1911 17.7313 20.6723 17.7313H20.6729C21.1541 17.7313 21.5439 18.1162 21.5439 18.5908C21.5439 19.0655 21.1535 19.4504 20.6723 19.4504C20.1911 19.4504 19.801 19.0655 19.801 18.5908Z" fill="black"/>
<path d="M24.0871 18.6164L24.0876 18.6167C24.5245 18.8156 24.7149 19.3262 24.5133 19.7572C24.3662 20.0716 24.0509 20.2567 23.7216 20.2567C23.5993 20.2567 23.4751 20.2312 23.3568 20.1774C22.9199 19.9785 22.7292 19.4678 22.9309 19.0367C23.1325 18.6057 23.6504 18.4175 24.0871 18.6164Z" fill="black"/>
<path d="M25.4717 20.884C25.872 20.6207 26.4129 20.7274 26.68 21.1223L26.6803 21.1229C26.9472 21.5178 26.8388 22.0512 26.4385 22.3145C26.29 22.4122 26.1222 22.4589 25.9561 22.4589C25.6744 22.4589 25.398 22.3245 25.2301 22.0759C24.963 21.681 25.0712 21.1474 25.4717 20.884Z" fill="black"/>
<path d="M25.9005 24.6073C25.9005 24.1327 26.2906 23.7478 26.7718 23.7478C27.253 23.7478 27.6431 24.1327 27.6431 24.6073V24.6079C27.6431 25.0825 27.253 25.4672 26.7718 25.4672C26.2906 25.4672 25.9005 25.0819 25.9005 24.6073Z" fill="black"/>
<path d="M26.7331 28.0006C26.5805 28.3017 26.273 28.4756 25.9535 28.4756C25.8226 28.4756 25.6895 28.4463 25.5644 28.3845C25.134 28.1722 24.9597 27.6557 25.1748 27.2311C25.39 26.8066 25.9133 26.6345 26.3439 26.8467C26.7743 27.059 26.9487 27.5753 26.7335 27.9999L26.7331 28.0006Z" fill="black"/>
<path d="M23.2651 29.0857C23.6751 28.8368 24.2116 28.9628 24.4639 29.3672C24.7161 29.7715 24.5883 30.3009 24.1785 30.5497L24.178 30.55C24.0356 30.6365 23.8781 30.6776 23.7224 30.6776C23.4299 30.6776 23.1441 30.5322 22.9795 30.2683C22.7273 29.8641 22.8554 29.3345 23.2651 29.0857Z" fill="black"/>
<path d="M20.6715 31.4833C20.1903 31.4833 19.8005 31.0984 19.8005 30.6237C19.8005 30.1491 20.1909 29.7642 20.6722 29.7642C21.1534 29.7642 21.5435 30.1491 21.5435 30.6237C21.5435 31.0984 21.1534 31.4833 20.6722 31.4833H20.6715Z" fill="black"/>
<path d="M17.1665 30.5497L17.166 30.5493C16.7561 30.3005 16.6286 29.7713 16.8809 29.367C17.1331 28.9628 17.6699 28.8369 18.0799 29.0857C18.4897 29.3345 18.6175 29.8639 18.3652 30.2682C18.2006 30.532 17.9149 30.6773 17.6223 30.6773C17.4666 30.6773 17.3089 30.6361 17.1665 30.5497Z" fill="black"/>
<path d="M14.9511 26.8729C15.3667 26.6339 15.9004 26.7724 16.1429 27.1825C16.3854 27.5926 16.2449 28.1189 15.8293 28.3581C15.6913 28.4376 15.5402 28.4753 15.3911 28.4753C15.0914 28.4753 14.7996 28.3226 14.6377 28.0487L14.6375 28.0482C14.395 27.6381 14.5355 27.112 14.9511 26.8729Z" fill="black"/>
<path d="M13.7022 24.6074V24.6067C13.7022 24.132 14.0923 23.7475 14.5735 23.7475C15.0547 23.7475 15.4448 24.1326 15.4448 24.6074C15.4448 25.0821 15.0547 25.4669 14.5735 25.4669C14.0923 25.4669 13.7022 25.082 13.7022 24.6074Z" fill="black"/>
<path d="M14.6656 21.1217C14.9325 20.7268 15.4732 20.6201 15.8738 20.8836C16.2741 21.1468 16.3822 21.6808 16.1153 22.0757C15.9474 22.3242 15.6711 22.4586 15.3895 22.4586C15.2234 22.4586 15.0555 22.4118 14.907 22.3141C14.5066 22.0508 14.3984 21.5171 14.6654 21.1222L14.6656 21.1217Z" fill="black"/>
<path d="M17.6243 20.2566C17.3318 20.2566 17.046 20.1114 16.8815 19.8475C16.6292 19.4432 16.757 18.9138 17.1668 18.665L17.1673 18.6646C17.5771 18.4158 18.1136 18.5421 18.3658 18.9463C18.618 19.3506 18.49 19.8802 18.0801 20.129C17.9377 20.2155 17.7801 20.2566 17.6243 20.2566Z" fill="black"/>
<path d="M24.1577 24.6074C24.1577 26.5032 22.5943 28.0455 20.6725 28.0455C18.7508 28.0455 17.1873 26.5032 17.1873 24.6074C17.1873 22.7116 18.7508 21.1693 20.6725 21.1693C22.5943 21.1693 24.1577 22.7116 24.1577 24.6074ZM20.6725 22.8883C19.7117 22.8883 18.9299 23.6595 18.9299 24.6074C18.9299 25.5553 19.7117 26.3265 20.6725 26.3265C21.6334 26.3265 22.4151 25.5553 22.4151 24.6074C22.4151 23.6595 21.6334 22.8883 20.6725 22.8883Z" fill="black"/>
<path d="M21.9196 12.2444C21.7824 12.3226 21.6326 12.3598 21.4848 12.3598C21.1837 12.3598 20.8908 12.2056 20.7295 11.9298L19.1064 9.1566C18.8658 8.74549 19.0086 8.2199 19.4253 7.9825C19.8419 7.74527 20.3748 7.88597 20.6155 8.29708L22.2385 11.0703C22.4792 11.4814 22.3365 12.007 21.9196 12.2444Z" fill="black"/>
<path d="M33.9607 26.2675C33.6595 26.2675 33.3667 26.1133 33.2053 25.8376C32.9647 25.4265 33.1075 24.9009 33.5242 24.6635L36.3355 23.0624C36.752 22.825 37.285 22.9659 37.5257 23.3769C37.7663 23.788 37.6235 24.3136 37.2068 24.551L34.3955 26.1522C34.2583 26.2303 34.1084 26.2675 33.9607 26.2675Z" fill="black"/>
<path d="M31.7737 30.9948H35.0198C35.501 30.9948 35.8911 31.3796 35.8911 31.8543C35.8911 32.3289 35.501 32.7138 35.0198 32.7138H31.7737C31.2925 32.7138 30.9024 32.3289 30.9024 31.8543C30.9024 31.3796 31.2925 30.9948 31.7737 30.9948Z" fill="black"/>
<path d="M27.0489 35.6145L29.8601 37.2156C30.2768 37.453 30.4196 37.9786 30.179 38.3897C30.0176 38.6655 29.7248 38.8197 29.4237 38.8197C29.2759 38.8197 29.126 38.7825 28.9888 38.7043L26.1776 37.1032C25.7608 36.8659 25.618 36.3402 25.8587 35.9291C26.0993 35.518 26.6322 35.3771 27.0489 35.6145Z" fill="black"/>
<path d="M19.4253 36.9703C19.8419 36.7331 20.3749 36.8739 20.6155 37.2849L22.2386 40.0582C22.4792 40.4693 22.3364 40.9949 21.9197 41.2323C21.7824 41.3104 21.6327 41.3476 21.4848 41.3476C21.1837 41.3476 20.8908 41.1934 20.7295 40.9177L19.1064 38.1444C18.8659 37.7333 19.0086 37.2076 19.4253 36.9703Z" fill="black"/>
<path d="M13.3265 34.6988C13.8077 34.6988 14.1978 35.0837 14.1978 35.5583V38.7605C14.1978 39.2352 13.8077 39.6201 13.3265 39.6201C12.8452 39.6201 12.4552 39.2352 12.4552 38.7605V35.5583C12.4552 35.0836 12.8452 34.6988 13.3265 34.6988Z" fill="black"/>
<path d="M8.00535 30.038C8.246 29.6269 8.7788 29.4859 9.19555 29.7234C9.61229 29.9608 9.75509 30.4864 9.51444 30.8975L7.89138 33.6707C7.73002 33.9464 7.43718 34.1006 7.13606 34.1006C6.98828 34.1006 6.83842 34.0634 6.70119 33.9853C6.28445 33.7479 6.14164 33.2223 6.3823 32.8112L8.00535 30.038Z" fill="black"/>
<path d="M4.13895 24.6635L6.9502 23.0625C7.36703 22.8253 7.89983 22.966 8.14048 23.3771C8.38104 23.7882 8.23824 24.3139 7.8215 24.5512L5.01025 26.1522C4.87302 26.2304 4.72325 26.2676 4.57539 26.2676C4.27427 26.2676 3.98133 26.1134 3.81997 25.8376C3.5794 25.4265 3.72221 24.9009 4.13895 24.6635Z" fill="black"/>
<path d="M6.32498 18.2199C5.84376 18.2199 5.45368 17.835 5.45368 17.3604C5.45368 16.8857 5.84376 16.5009 6.32498 16.5009H9.57108C10.0523 16.5009 10.4424 16.8857 10.4424 17.3604C10.4424 17.835 10.0523 18.2199 9.57108 18.2199H6.32498Z" fill="black"/>
<path d="M14.7313 13.7154C14.5835 13.7154 14.4336 13.6782 14.2964 13.6001L11.4852 11.999C11.0684 11.7617 10.9256 11.236 11.1663 10.8249C11.4069 10.4138 11.9398 10.2729 12.3565 10.5103L15.1677 12.1114C15.5845 12.3487 15.7273 12.8744 15.4866 13.2855C15.3252 13.5612 15.0324 13.7154 14.7313 13.7154Z" fill="black"/>
<path d="M20.6719 34.9214C20.1907 34.9214 19.8006 34.5365 19.8006 34.0619C19.8006 33.5873 20.1907 33.2024 20.6719 33.2024H20.6725C21.1537 33.2024 21.5435 33.5873 21.5435 34.0619C21.5435 34.5365 21.1531 34.9214 20.6719 34.9214Z" fill="black"/>
</svg>
