<svg width="8" height="16" viewBox="0 0 8 16" fill="none" xmlns="http://www.w3.org/2000/svg">
<path d="M7.00052 7.99994C7.00097 8.23359 6.9196 8.46003 6.77052 8.63994L1.77052 14.6399C1.60078 14.8442 1.35687 14.9726 1.09244 14.997C0.828017 15.0213 0.564736 14.9397 0.360519 14.7699C0.156303 14.6002 0.0278788 14.3563 0.00349911 14.0919C-0.0208806 13.8274 0.0607808 13.5642 0.230519 13.3599L4.71052 7.99994L0.39052 2.63994C0.307454 2.53765 0.245422 2.41995 0.207991 2.29361C0.170559 2.16727 0.158465 2.03478 0.172404 1.90375C0.186344 1.77273 0.22604 1.64574 0.289214 1.53011C0.352388 1.41447 0.437793 1.31246 0.54052 1.22994C0.643341 1.13836 0.763968 1.069 0.894841 1.0262C1.02571 0.983412 1.16402 0.968109 1.30108 0.981252C1.43814 0.994395 1.57101 1.0357 1.69137 1.10258C1.81173 1.16947 1.91697 1.26049 2.00052 1.36994L6.83052 7.36994C6.95603 7.55502 7.01589 7.77684 7.00052 7.99994Z" fill="white"/>
</svg>
