<svg width="39" height="21" viewBox="0 0 39 21" fill="none" xmlns="http://www.w3.org/2000/svg">
<path fill-rule="evenodd" clip-rule="evenodd" d="M21.2114 20.8018L21.2114 17.6333L22.6981 17.6333L22.6981 11.6839L24.9279 11.6839L24.9279 9.45288L29.9363 9.45288L31.0185 12.6425C31.1456 13.0188 31.4124 13.3223 31.7685 13.4978C32.1245 13.6725 32.5274 13.6993 32.9035 13.5729L37.1269 12.1383C37.9029 11.8743 38.3199 11.0281 38.056 10.2517L35.1892 1.80116C35.062 1.4249 34.7952 1.12145 34.4392 0.945945C34.2318 0.843341 34.0081 0.791257 33.7828 0.791257C33.6223 0.791257 33.4602 0.817998 33.3034 0.870821L29.08 2.30538C28.304 2.56941 27.887 3.41566 28.1509 4.19206L28.4229 4.99075L24.9279 4.99075L24.9279 2.75972L13.0352 2.75972L13.0352 4.99075L8.74194 4.99075L7.6597 1.80108C7.53256 1.42481 7.26578 1.12136 6.9097 0.945861C6.7023 0.843257 6.47861 0.791913 6.2541 0.791913C6.09284 0.791913 5.93149 0.817914 5.77466 0.870738L1.55203 2.30529C0.776121 2.56933 0.359098 3.41566 0.622999 4.19206L3.48913 12.6432C3.75303 13.4189 4.59662 13.8376 5.37491 13.5728L9.59827 12.1383C10.3735 11.8742 10.7905 11.028 10.5274 10.2516L10.2561 9.45288L13.0353 9.45288L13.0353 11.6839L15.2652 11.6839L15.2652 17.6333L16.7518 17.6333L16.7518 20.8018L18.2391 20.8018L18.2391 17.6333L19.7257 17.6333L19.7257 20.8018L21.2114 20.8018ZM32.2866 11.7516L32.4263 12.1643L33.8341 11.6862L33.2165 9.86494L32.2866 11.7516ZM35.242 11.208L36.6498 10.7298L36.5101 10.3171L34.6243 9.38673L35.242 11.208ZM35.8344 8.32614L35.3148 6.79565L33.429 5.86531L33.9486 7.3958L35.8344 8.32614ZM34.6399 4.8048L33.7828 2.27929L32.3751 2.75742L32.7542 3.87446L34.6399 4.8048ZM31.6109 9.76003L32.5408 7.87327L32.022 6.34426L31.0921 8.23102L31.6109 9.76003ZM31.3464 4.35267L30.9673 3.23564L29.5588 3.71467L30.4158 6.24017L31.3464 4.35267ZM28.9276 6.47813L24.9287 6.47813L24.9287 7.9655L29.4323 7.9655L28.9276 6.47813ZM4.75648 11.7524L4.8962 12.1643L6.30402 11.6861L5.68634 9.86486L4.75648 11.7524ZM16.7524 16.146L21.2122 16.146L21.2122 11.6838L16.7524 11.6838L16.7524 16.146ZM23.4422 4.2471L14.5227 4.2471L14.5227 10.1965L15.266 10.1965L22.6989 10.1965L23.4422 10.1965L23.4422 4.2471ZM13.036 7.9655L13.036 6.47813L9.24745 6.47813L9.75214 7.9655L13.036 7.9655ZM9.11957 10.729L8.97985 10.317L7.09407 9.38664L7.71175 11.2079L9.11957 10.729ZM8.30493 8.32613L7.7861 6.79565L5.9004 5.8653L6.41923 7.39579L8.30493 8.32613ZM7.1097 4.80488L6.2527 2.27929L4.84489 2.7575L5.224 3.87454L7.1097 4.80488ZM4.08082 9.76077L5.01142 7.87327L4.49259 6.34351L3.56199 8.23176L4.08082 9.76077ZM3.81618 4.35193L3.43781 3.23563L2.0286 3.71393L2.88559 6.23943L3.81618 4.35193Z" fill="#A50000"/>
</svg>
