<svg width="36" height="16" viewBox="0 0 36 16" fill="none" xmlns="http://www.w3.org/2000/svg">
<path fill-rule="evenodd" clip-rule="evenodd" d="M16.0476 -1.74427e-06L16.0476 5.45569L10.8748 5.45569L10.8748 7.67373L7.9189 7.67373L7.9189 5.45569C7.9189 4.64022 7.25609 3.97697 6.44095 3.97697L2.00709 3.97697C1.19204 3.97697 0.529141 4.64013 0.529141 5.45569L0.529141 14.3279C0.529224 15.1435 1.19204 15.8066 2.00718 15.8066L6.44103 15.8066C7.25608 15.8066 7.91898 15.1435 7.91898 14.3279L7.91898 12.1099L10.8749 12.1099L10.8749 14.3279L25.6542 14.3279L25.6542 12.1099L28.6101 12.1099L28.6101 14.3279C28.6101 15.1435 29.273 15.8066 30.088 15.8066L34.5218 15.8066C35.3369 15.8066 35.9998 15.1435 35.9998 14.3279L35.9998 5.45569C35.9998 4.64022 35.3369 3.97697 34.5218 3.97697L30.0879 3.97697C29.2729 3.97697 28.61 4.64014 28.61 5.45569L28.61 7.67373L25.6541 7.67373L25.6541 5.45569L20.4813 5.45569L20.4813 -1.35667e-06L19.0042 -1.4858e-06L19.0042 5.45569L17.5263 5.45569L17.5263 -1.615e-06L16.0476 -1.74427e-06ZM2.00783 14.3279L3.48578 14.3279L3.48578 12.416L2.00783 13.8946L2.00783 14.3279ZM2.00783 11.8038L3.48578 10.3251L3.48578 8.71923L2.00709 10.1987L2.00783 11.8038ZM2.00709 8.10776L3.48578 6.62831L3.48578 5.45569L2.00709 5.45569L2.00709 8.10776ZM4.96373 14.3279L6.44168 14.3279L6.44168 13.8947L4.96373 12.416L4.96373 14.3279ZM4.96373 10.3251L6.44169 11.8038L6.44169 10.1979L4.96373 8.71923L4.96373 10.3251ZM6.44169 8.10703L6.44169 7.67373L6.44169 5.45569L4.96373 5.45569L4.96373 6.62831L6.44169 8.10703ZM30.0888 14.3279L31.5667 14.3279L31.5667 12.416L30.0888 13.8946L30.0888 14.3279ZM30.0888 11.8038L31.5667 10.3251L31.5667 8.71923L30.0888 10.1979L30.0888 11.8038ZM34.5226 5.45569L33.0447 5.45569L33.0447 6.62831L34.5226 8.10703L34.5226 5.45569ZM34.5226 10.1979L33.0447 8.71923L33.0447 10.3251L34.5226 11.8038L34.5226 10.1979ZM34.5226 13.8947L33.0447 12.416L33.0447 14.328L34.5226 14.328L34.5226 13.8947ZM31.5667 6.62831L31.5667 5.45569L30.0873 5.45569L30.088 7.67373L30.0888 7.67373L30.0888 8.10703L31.5667 6.62831ZM28.6108 9.15245L25.6549 9.15245L25.6549 10.6312L28.6108 10.6312L28.6108 9.15245ZM7.91964 10.6312L10.8755 10.6312L10.8755 9.15245L7.91964 9.15245L7.91964 10.6312ZM24.177 6.93441L20.4821 6.93441L16.0483 6.93441L12.3535 6.93441L12.3535 12.8492L24.177 12.8492L24.177 6.93441Z" fill="#A50000"/>
</svg>
